<?xml version="1.0" encoding="utf-8"?>
<!-- Generator: Adobe Illustrator 22.0.0, SVG Export Plug-In . SVG Version: 6.00 Build 0)  -->
<svg version="1.1" id="Capa_1" xmlns="http://www.w3.org/2000/svg" xmlns:xlink="http://www.w3.org/1999/xlink" x="0px" y="0px"
	 viewBox="0 0 152.7 54.3" style="enable-background:new 0 0 152.7 54.3;" xml:space="preserve">
<style type="text/css">
	.st0{fill:#FFFFFF;}
</style>
<g>
	<path class="st0" d="M76.2,20.6c0.3,0,0.4,0.1,0.4,0.4V23c0,0.3-0.1,0.4-0.4,0.4h-4.4v11.1c0,0.3-0.1,0.4-0.4,0.4H69
		c-0.3,0-0.4-0.1-0.4-0.4V23.3h-4.4c-0.3,0-0.4-0.1-0.4-0.4V21c0-0.3,0.1-0.4,0.4-0.4H76.2z"/>
	<path class="st0" d="M89.2,34.5c0,0.2-0.1,0.4-0.3,0.4c-0.6,0.2-1.1,0.2-1.5,0.2c-1.3,0-2.2-0.4-2.7-1.2c-0.9,0.8-2,1.2-3.4,1.2
		c-1.3,0-2.4-0.4-3.2-1.2c-0.8-0.8-1.2-1.9-1.2-3.3v-5.3c0-0.3,0.1-0.4,0.4-0.4h2.3c0.3,0,0.4,0.1,0.4,0.4v4.9
		c0,0.7,0.2,1.2,0.6,1.7c0.4,0.4,0.9,0.6,1.5,0.6c0.7,0,1.2-0.2,1.6-0.6c0.4-0.4,0.6-0.9,0.6-1.6v-5c0-0.3,0.1-0.4,0.4-0.4h2.3
		c0.3,0,0.4,0.1,0.4,0.4v6.4c0,0.5,0.2,0.8,0.7,0.8c0.2,0,0.5,0,0.6-0.1c0.3,0,0.4,0.1,0.4,0.3L89.2,34.5z"/>
	<path class="st0" d="M99,24.9c0.2,0.1,0.3,0.2,0.3,0.4L99,27.3c0,0.2-0.2,0.3-0.4,0.3c-0.3-0.1-0.7-0.1-1.1-0.1
		c-0.8,0-1.4,0.2-1.9,0.7c-0.5,0.5-0.8,1.1-0.8,1.9v4.4c0,0.3-0.1,0.4-0.4,0.4h-2.3c-0.3,0-0.4-0.1-0.4-0.4v-6.4
		c0-0.5-0.3-0.8-0.8-0.8c-0.1,0-0.2,0-0.4,0.1c-0.3,0-0.4-0.1-0.4-0.3v-1.7c0-0.2,0.1-0.4,0.3-0.4c0.5-0.2,1-0.2,1.5-0.2
		c1.2,0,2,0.5,2.5,1.4c0.8-0.9,1.9-1.4,3.3-1.4C98.1,24.7,98.6,24.7,99,24.9z"/>
	<path class="st0" d="M103.7,22.7c-0.3,0.3-0.8,0.5-1.3,0.5c-0.5,0-0.9-0.2-1.3-0.5c-0.3-0.3-0.5-0.7-0.5-1.2c0-0.5,0.2-0.9,0.5-1.2
		c0.3-0.3,0.8-0.5,1.3-0.5c0.5,0,0.9,0.2,1.3,0.5c0.3,0.3,0.5,0.7,0.5,1.2C104.2,22,104,22.4,103.7,22.7z M101.3,34.8
		c-0.3,0-0.4-0.1-0.4-0.4v-9.1c0-0.3,0.1-0.4,0.4-0.4h2.3c0.3,0,0.4,0.1,0.4,0.4v9.1c0,0.3-0.1,0.4-0.4,0.4H101.3z"/>
	<path class="st0" d="M110.6,35.2c-1.4,0-2.6-0.3-3.5-0.8c-0.9-0.6-1.4-1.3-1.6-2.3c0-0.3,0.1-0.4,0.4-0.4l2,0
		c0.2,0,0.3,0.1,0.4,0.3c0.3,0.7,1,1.1,2.2,1.1c0.5,0,0.9-0.1,1.2-0.2c0.3-0.2,0.5-0.4,0.5-0.7c0-0.4-0.2-0.6-0.6-0.8
		c-0.4-0.2-1-0.3-1.6-0.3c-0.6-0.1-1.2-0.2-1.9-0.3c-0.6-0.1-1.2-0.5-1.6-0.9c-0.4-0.5-0.6-1.1-0.6-1.9c0-1,0.4-1.7,1.2-2.3
		c0.8-0.6,1.9-0.9,3.3-0.9c1.3,0,2.3,0.3,3.2,0.8c0.9,0.5,1.4,1.2,1.5,2.1c0,0.3-0.1,0.4-0.4,0.4h-2c-0.2,0-0.3-0.1-0.4-0.2
		c-0.1-0.3-0.4-0.5-0.7-0.7c-0.3-0.2-0.7-0.3-1.2-0.3c-0.5,0-0.9,0.1-1.1,0.2c-0.3,0.2-0.4,0.4-0.4,0.6c0,0.4,0.2,0.6,0.7,0.8
		c0.4,0.2,1,0.3,1.6,0.4c0.6,0.1,1.3,0.2,1.9,0.4c0.6,0.1,1.1,0.5,1.6,0.9c0.4,0.5,0.7,1.1,0.7,1.8c0,1-0.4,1.8-1.3,2.4
		C113.2,34.9,112.1,35.2,110.6,35.2z"/>
	<path class="st0" d="M130.7,24.7c1.3,0,2.4,0.4,3.2,1.2s1.2,1.9,1.2,3.3v5.3c0,0.3-0.1,0.4-0.4,0.4h-2.3c-0.3,0-0.4-0.1-0.4-0.4
		v-4.9c0-0.7-0.2-1.2-0.6-1.7c-0.4-0.4-0.9-0.6-1.5-0.6c-0.6,0-1,0.2-1.3,0.6c-0.3,0.4-0.5,0.9-0.5,1.6v5c0,0.3-0.1,0.4-0.4,0.4
		h-2.3c-0.3,0-0.4-0.1-0.4-0.4v-4.9c0-0.7-0.2-1.2-0.5-1.7c-0.4-0.4-0.8-0.6-1.4-0.6c-0.6,0-1.1,0.2-1.5,0.6
		c-0.4,0.4-0.6,0.9-0.6,1.6v5c0,0.3-0.1,0.4-0.4,0.4h-2.3c-0.3,0-0.4-0.1-0.4-0.4v-6.4c0-0.5-0.3-0.8-0.8-0.8c-0.1,0-0.2,0-0.4,0.1
		c-0.3,0-0.4-0.1-0.4-0.3v-1.7c0-0.2,0.1-0.4,0.3-0.4c0.4-0.2,0.9-0.2,1.5-0.2c1.2,0,2,0.4,2.4,1.2c0.8-0.8,2-1.2,3.4-1.2
		c1.4,0,2.4,0.5,3.2,1.4C128,25.2,129.2,24.7,130.7,24.7z"/>
	<path class="st0" d="M146.4,33.7c-1,1-2.4,1.4-4,1.4c-1.7,0-3-0.5-4-1.4c-1-1-1.5-2.2-1.5-3.8c0-1.6,0.5-2.9,1.5-3.8
		c1-1,2.4-1.4,4-1.4c1.7,0,3,0.5,4,1.4c1,1,1.5,2.2,1.5,3.8C147.9,31.5,147.4,32.8,146.4,33.7z M140.4,31.9c0.5,0.5,1.1,0.7,1.9,0.7
		c0.8,0,1.4-0.2,1.9-0.7c0.5-0.5,0.7-1.2,0.7-2c0-0.8-0.2-1.5-0.7-2c-0.5-0.5-1.1-0.7-1.9-0.7c-0.8,0-1.4,0.2-1.9,0.7
		c-0.5,0.5-0.7,1.2-0.7,2C139.7,30.8,139.9,31.4,140.4,31.9z"/>
	<path class="st0" d="M40,5.7C36.3,2,31.4,0,26.1,0C20.9,0,16,2,12.3,5.7s-5.7,8.6-5.7,13.8c0,5.2,2,10.1,5.7,13.8l13.8,13.8
		L40,33.3c3.7-3.7,5.7-8.6,5.7-13.8C45.7,14.3,43.7,9.4,40,5.7 M37.3,30.6L26.2,41.7L15,30.6c-6.1-6.1-6.1-16.1,0-22.2
		c3.1-3.1,7.1-4.6,11.1-4.6c4,0,8,1.5,11.1,4.6C43.4,14.6,43.4,24.5,37.3,30.6"/>
	<path class="st0" d="M19.1,12.5c-3.9,3.9-3.9,10.2,0,14c1.9,1.9,4.5,2.9,7,2.9c2.5,0,5.1-1,7-2.9c3.9-3.9,3.9-10.2,0-14
		C29.3,8.6,23,8.6,19.1,12.5 M32.2,19.5c0,1.6-0.6,3.2-1.8,4.3c-2.4,2.4-6.2,2.4-8.6,0c-2.4-2.4-2.4-6.2,0-8.6
		c1.2-1.2,2.7-1.8,4.3-1.8c1.6,0,3.1,0.6,4.3,1.8C31.6,16.4,32.2,17.9,32.2,19.5"/>
	<rect x="13.3" y="49.6" class="st0" width="24.5" height="4.2"/>
</g>
</svg>
