<svg xmlns="http://www.w3.org/2000/svg" viewBox="0 0 224.36 232.85"><defs><style>.cls-1{fill:#fff;}</style></defs><title>logo-estado</title><g id="Capa_2" data-name="Capa 2"><g id="mi_jalisco"><path class="cls-1" d="M110.47,27.9V38.22a10.15,10.15,0,0,1,4.17,0h0V27.9a6.78,6.78,0,0,0-4.17,0"/><path class="cls-1" d="M67.3,30.64a1.82,1.82,0,0,0,1.05,1.48A32.34,32.34,0,0,0,82,35.23a31.39,31.39,0,0,0,17.78-5.7,24.54,24.54,0,0,1,25.33-1.05A9.39,9.39,0,0,1,118.4,31h-1.57v3.66h1.57a12.66,12.66,0,0,0,11-5.72l0,0h0a1.86,1.86,0,0,0,.24-.89V6.21a1.83,1.83,0,0,0-.8-1.52,28.2,28.2,0,0,0-31.15,0A27.37,27.37,0,0,1,69.9,7a1.83,1.83,0,0,0-2,3l11.9,10.29L68,29a1.84,1.84,0,0,0-.74,1.66m16.55-8.73A1.83,1.83,0,0,0,84,19l-7-6A30.84,30.84,0,0,0,99.77,7.72,24.52,24.52,0,0,1,126,7.2V24.81A28.29,28.29,0,0,0,97.71,26.5,27.23,27.23,0,0,1,72.86,30Z"/><polygon class="cls-1" points="110.47 18.89 114.63 18.89 114.63 14.93 118.6 14.93 118.6 10.76 114.63 10.76 114.63 6.79 110.47 6.79 110.47 10.76 106.5 10.76 106.5 14.93 110.47 14.93 110.47 18.89"/><path class="cls-1" d="M201.62,169.76c1.31-1.56,2.7-3.14,4-4.67,5.48-6.26,11.15-12.74,14.87-20.65A36.66,36.66,0,0,0,224.08,124,32,32,0,0,0,205,98.84a14.68,14.68,0,0,0,2.07-9.45v-.08a2,2,0,0,0-3.4-1.17A7.75,7.75,0,0,1,195.52,90l-.28-.1a38.15,38.15,0,0,0-13.61-2.5,38.64,38.64,0,0,0-5.58.41c0-.09,0-.18,0-.28a12.9,12.9,0,0,0-.66-4.07,2,2,0,0,0-1.19-1.24,2,2,0,0,0-1.72.13,5.26,5.26,0,0,1-2.64.71c-.19,0-.38,0-.62,0-1.1-.11-2.07-.16-3-.16a30.66,30.66,0,0,0-4.22.29A30,30,0,0,0,158,84a29.7,29.7,0,0,0-3.86,1.4,30.51,30.51,0,0,0-3.6,1.89,31.22,31.22,0,0,0-3.3,2.34,31.58,31.58,0,0,0-3,2.75c-.59.63-1.17,1.26-1.71,1.94s-1,1.38-1.46,2.09c-1,1.45-1.8,3-2.76,4.42-.1.15-.21.3-.31.46l-.17.23s-.15.17-.15.21l0,0-.07.1c-.28.39-.58.77-.88,1.15s-.67.81-1,1.2c-.52.59-1.08,1.15-1.65,1.7l-.66.62c-.39.36-.8.72-1.21,1.07l-.35.3-6.1-4.2-1-5.84c.41-.64.8-1.28,1.14-1.93l.22-.36c.18-.36.34-.72.5-1.09l.13-.3c.14-.31.27-.62.39-.93l.16-.36c.05-.14.1-.28.14-.43l1.72-.37,1.37-9.94h0v0l-1.85-.44c0-.32-.06-.64-.13-1s-.13-.83-.23-1.24A15.57,15.57,0,0,0,127.05,76c0-.08-.05-.15-.09-.23a12.73,12.73,0,0,0-7.19-6.27l-.25-.07.12-.29c.09-.22.17-.44.27-.65a12.61,12.61,0,0,1,5.75-6.07c.43,1.07.64,1.82.64,1.84a1.74,1.74,0,0,0,1.9,1.21,3.16,3.16,0,0,0,1.44-.54,6.19,6.19,0,0,0,1.73-1.9,13.5,13.5,0,0,0,.95-12.51A8.88,8.88,0,0,0,124.69,45a8.3,8.3,0,0,0-3.36.59,9.72,9.72,0,0,0-17.54,0,8.32,8.32,0,0,0-3.36-.59,8.91,8.91,0,0,0-7.65,5.58,13.53,13.53,0,0,0,.95,12.51A6.21,6.21,0,0,0,95.46,65a3.15,3.15,0,0,0,1.44.54,1.75,1.75,0,0,0,1.9-1.21s.22-.77.64-1.84a12.64,12.64,0,0,1,5.75,6.07c.09.21.18.43.27.65l.11.29-.25.07a12.76,12.76,0,0,0-7.19,6.27c0,.08,0,.15-.08.23a15.89,15.89,0,0,0-1.28,3.41c-.1.41-.16.83-.23,1.24s-.08.64-.12,1l-1.85.44v0L96,92l1.72.37.15.43.16.36c.13.31.25.62.39.93l.12.3c.17.36.32.73.51,1.09l.22.36c.35.66.74,1.31,1.16,2l-1,5.81-6.13,4.22a34.61,34.61,0,0,1-3.35-3.11l-.54-.59c-.68-.76-1.31-1.55-1.91-2.35l-.09-.12s-.13-.17-.16-.21l-.16-.23-.31-.46c-1-1.44-1.81-3-2.76-4.42-.47-.71-.94-1.42-1.47-2.09S81.42,93,80.83,92.35a31.45,31.45,0,0,0-3-2.75,31.82,31.82,0,0,0-3.3-2.34A30.51,30.51,0,0,0,71,85.37,30.19,30.19,0,0,0,63,83.11a30.66,30.66,0,0,0-4.22-.29c-.88,0-1.85.05-3,.16-.24,0-.43,0-.63,0a5.27,5.27,0,0,1-2.64-.71,2,2,0,0,0-2.89,1.11A12.74,12.74,0,0,0,49,87.49c0,.13,0,.26,0,.39a38.29,38.29,0,0,0-19.93,2l-.29.1a7.74,7.74,0,0,1-8.14-1.81,2,2,0,0,0-3.4,1.17v.08a14.78,14.78,0,0,0,2.07,9.45A32,32,0,0,0,.28,124a36.61,36.61,0,0,0,3.55,20.41c3.72,7.92,9.39,14.39,14.87,20.65,1.34,1.53,2.73,3.12,4,4.67.44.52.91,1.06,1.38,1.61,3.41,4,7.28,8.44,7.28,12.73,0,4.62-2.76,7.38-7.38,7.38A8.31,8.31,0,0,1,21.2,191a4.05,4.05,0,0,0-1.12-.22h0s-3.83-.46-4.89,3.05a3.91,3.91,0,0,0-1.08.15,4,4,0,0,0-2.9,4.26l0,.21C12.56,209.94,22.49,219,33.83,219h.31a23.77,23.77,0,0,0,14.26-5l.12.13a4,4,0,0,0,5.17.45A25.23,25.23,0,0,0,61.25,206l0,0c.15-.27.29-.55.42-.83l.4.7q.41.68.84,1.35c10.14,15.77,29,25.56,49.23,25.56s39.1-9.8,49.23-25.56c.28-.44.56-.89.83-1.35l.41-.7c.14.28.27.56.42.83l0,0a25.09,25.09,0,0,0,7.55,8.49,4,4,0,0,0,5.17-.45L176,214a23.76,23.76,0,0,0,14.26,5h.31c11.34,0,21.27-9,22.61-20.53l0-.21a4,4,0,0,0-2.91-4.26,3.93,3.93,0,0,0-1.08-.15c-1.07-3.52-4.89-3.05-4.89-3.05h0a4,4,0,0,0-1.11.22,8.36,8.36,0,0,1-2.83.49c-4.62,0-7.38-2.76-7.38-7.38,0-4.29,3.87-8.78,7.28-12.73.48-.55.95-1.09,1.38-1.61m-20-78.4a34.17,34.17,0,0,1,12.19,2.25l.31.11a11.71,11.71,0,0,0,6.67.42,12.08,12.08,0,0,0,2.14-.71,10.85,10.85,0,0,1-1.78,4,57.37,57.37,0,0,0-7.86-1,28.69,28.69,0,0,0-24.42,13.65,4.38,4.38,0,0,0-4.33-3.06H152.84a34.23,34.23,0,0,1,28.79-15.69m4.15,49.22a9.39,9.39,0,0,0,.34.95A11.9,11.9,0,0,0,197.57,149H198l.08,0c-8.67,8.84-20.78,13.57-29,22.78V140c.35-.34.63-.6.87-.84,2.35-2.42,4.48-5.13,6.91-7.52,3.62-3.57,7.74-6.67,12.94-7.36a9.91,9.91,0,0,1,6.1.71,5.68,5.68,0,0,1,2.37,2.52,5.55,5.55,0,0,1-1.12,6.27,5.76,5.76,0,0,1-.52.4,6,6,0,0,1-2.75,1,4.6,4.6,0,0,1-1.93-.2,4.94,4.94,0,0,0-2.29-.31,4.4,4.4,0,0,0-3,1.66,4.65,4.65,0,0,0-.77,4.25M126.7,85.16l-.38,3.52h-.08l-1.93.39-1.86.39V84.15l2.37.56,1.87.44M112.53,95.6h.06l10.15-2.18h0a22.08,22.08,0,0,1-1.35,2.33,17.75,17.75,0,0,1-1.12,1.5c-2,2.39-4.56,4.26-7.71,4.27s-5.75-1.88-7.72-4.27c-.39-.48-.77-1-1.11-1.5a21.16,21.16,0,0,1-1.35-2.33h0Zm-6-5.32V83.23l4.06-1v8.85Zm8,.84V82.27l4.06,1v7.05ZM101.27,58.94a8.37,8.37,0,0,1,2.93-2.83s-3.68.09-7.66,3.77a9.8,9.8,0,0,1,0-7.69,4.83,4.83,0,0,1,4.14-3.13,7.87,7.87,0,0,1,4.05,1A12.15,12.15,0,0,1,110.82,58a12.66,12.66,0,0,0-2.6-9,10.74,10.74,0,0,0-1-1.2,5.69,5.69,0,0,1,10.74,0,12.13,12.13,0,0,0-1,1.2,12.7,12.7,0,0,0-2.6,9,12.16,12.16,0,0,1,6.1-7.94,7.87,7.87,0,0,1,4.05-1,4.82,4.82,0,0,1,4.13,3.13,9.75,9.75,0,0,1,0,7.69c-4-3.68-7.66-3.77-7.66-3.77a8.35,8.35,0,0,1,2.93,2.83,16.64,16.64,0,0,0-7.55,8c-.11.24-.21.5-.31.75s-.14.35-.21.51c-1.12-.46-2.12-1.09-3.2-1.65h0c-1.09.56-2.09,1.19-3.21,1.65-.06-.17-.14-.34-.21-.51s-.2-.5-.31-.75a16.62,16.62,0,0,0-7.55-8m5.88,14.39c.89-.31,1.86-.58,2.76-.92A23.46,23.46,0,0,0,112.56,71a23.43,23.43,0,0,0,2.65,1.39c.91.35,1.87.61,2.76.92a10.17,10.17,0,0,1,6.31,7.23c-10.68-2.63-11.43-2.81-11.69-2.82h-.06c-.27,0-1,.19-11.7,2.82a10.19,10.19,0,0,1,6.31-7.23M98.87,88.7H98.8l-.39-3.52,1.87-.44,2.37-.56v5.33l-1.86-.39Zm4.45,17,.6-3.43.27.22a12.55,12.55,0,0,0,8.36,3.56h0a12.54,12.54,0,0,0,8.35-3.56l.29-.3.62,3.51,6.66,4.6-1,.59a33.59,33.59,0,0,1-9.08,3.6,24.77,24.77,0,0,1-5.88.83,26.88,26.88,0,0,1-5.08-.66,33.61,33.61,0,0,1-9.37-3.49q-.73-.41-1.44-.85ZM23.55,94.13a11.71,11.71,0,0,0,6.67-.42l.31-.11a34.27,34.27,0,0,1,41,13.44H59.8a4.39,4.39,0,0,0-4.33,3.06A28.69,28.69,0,0,0,31.06,96.45a57.37,57.37,0,0,0-7.86,1,10.66,10.66,0,0,1-1.78-4,11.87,11.87,0,0,0,2.13.71M60.27,195.68c0,.32-.06.64-.1,1,0,.07,0,.14,0,.21,0,.34-.1.68-.16,1l0,.09a21.07,21.07,0,0,1-1.37,4.43c0,.06-.06.12-.09.18-.11.26-.23.51-.35.76s-.18.35-.27.53a21.28,21.28,0,0,1-6.51,7.41A21.24,21.24,0,0,0,54.55,193l0-.06a29.39,29.39,0,0,1-3.85,12.37l0,.05A19.22,19.22,0,0,1,34.08,215h-.25c-9.15,0-17.52-7.5-18.62-17v-.08l0-.06a.43.43,0,0,1,.1.13,14.08,14.08,0,0,0,25.85-6.81,14.09,14.09,0,0,1-6.18,7.09l-.18.1a13.13,13.13,0,0,1-2.47,1.05c-3.64,1.23-10.15,2.13-13.92-5.11a8.8,8.8,0,0,1,.89.34,12.25,12.25,0,0,0,1.9.64,11,11,0,0,0,2.16.23c.65,0,1.3,0,2-.09l1-.1c.24,0,.47-.09.71-.14a11.45,11.45,0,0,0,2.85-1,10.08,10.08,0,0,0,4.09-4,11.33,11.33,0,0,0,1.1-2.81,13.52,13.52,0,0,0,.38-3.24c0-6.5-5.69-12.29-9.61-16.92-6.55-7.77-14-15.14-18.35-24.45a32.88,32.88,0,0,1-3.2-18.16c1.83-13.52,12.93-24.11,26.81-24.11A24.67,24.67,0,0,1,52.56,113c.4.77,2.77,5.54,2.78,9.28v11.24l0,0c-2.93-3.25-5.67-6.49-9.27-9-5.35-3.8-13.2-6.56-19.38-3.1a10.36,10.36,0,0,0-3.47,14.88s3.39,5.27,10.6,3.39c0,0-2.23,7.15-10.71,4a8.73,8.73,0,0,1-1.78-.91,14.83,14.83,0,0,1-2.81-2.49,14.1,14.1,0,0,1-1.2-1.53A15.18,15.18,0,0,1,16,136.4a15.46,15.46,0,0,1-1-3.16,15.8,15.8,0,0,1,1.34-9.7A19.38,19.38,0,0,1,27.84,114,22.33,22.33,0,0,1,44,115.93a23.39,23.39,0,0,1,2,1.32,10.27,10.27,0,0,1,1.6,1.34c-2.59-5.5-9.41-8.42-15.21-8.7a21.13,21.13,0,0,0-17.19,8A21.49,21.49,0,0,0,11,135c1.17,6.56,6.42,12.07,10.58,17,7.41,8.88,15,17.61,20.54,27.84a25.51,25.51,0,0,1,3.09,12.72,16.78,16.78,0,0,1-16,16.78h0a17.14,17.14,0,0,0,18.07-8.82c7.57-14.09-4.39-28.38-12.73-38.73-.51-.63-3.16-3.7-4.31-5.05l9.69,7c1.95,1.44,3.9,2.88,5.84,4.44a51.49,51.49,0,0,1,7.78,7.66c3.94,4.89,7.31,12.29,6.71,19.85m-34-46.74.08,0h.42a11.9,11.9,0,0,0,11.44-7.44,9.31,9.31,0,0,0,.34-.95,4.63,4.63,0,0,0-.76-4.25,4.42,4.42,0,0,0-3.05-1.66,4.94,4.94,0,0,0-2.28.31,4.6,4.6,0,0,1-1.93.2,5.86,5.86,0,0,1-2.74-1,4.56,4.56,0,0,1-.52-.4,5.56,5.56,0,0,1-1.12-6.27A5.65,5.65,0,0,1,28.53,125a9.93,9.93,0,0,1,6.11-.71c5.2.69,9.32,3.78,12.93,7.36,2.42,2.39,4.55,5.11,6.91,7.52.23.24.51.5.87.84v31.73c-8.27-9.21-20.38-13.93-29-22.78m133.78,46.88c0,.07,0,.13,0,.2a26,26,0,0,0,.54,3.58h0a46.24,46.24,0,0,1-2.32,4.44c-.25.42-.51.83-.77,1.24-9.06,14.09-26,23.56-45.38,23.56s-36.32-9.48-45.38-23.56c-.26-.41-.52-.83-.77-1.24a45.1,45.1,0,0,1-2.32-4.44h0a25.17,25.17,0,0,0,.55-3.58c0-.07,0-.13,0-.2a31.4,31.4,0,0,0-4.47-18l0,0V111H78.53l-2.37-4h0l.13.22A38.25,38.25,0,0,0,53.14,88.8a9.18,9.18,0,0,1-.1-1.31c0-.25,0-.48,0-.73a9.39,9.39,0,0,0,3.16.2c1-.1,1.83-.14,2.58-.14h.64a26.44,26.44,0,0,1,8.23,1.54,26.39,26.39,0,0,1,12.83,9.92c1,1.41,1.81,2.9,2.77,4.31a37.73,37.73,0,0,0,3.11,4c.79.88,1.61,1.71,2.46,2.51.42.39.85.77,1.28,1.14l.13.11c.42.35.83.7,1.26,1l.18.14c.42.32.85.64,1.28.95l.17.13,1.34.89.1.06a37.12,37.12,0,0,0,5.91,3l.3.13,1.13.42c.93.33,1.89.64,2.84.9a33.91,33.91,0,0,0,7.77,1.19,33.91,33.91,0,0,0,7.78-1.19c1-.26,1.91-.57,2.84-.9l1.13-.42.3-.13a37.31,37.31,0,0,0,5.9-3l.1-.06c.45-.29.89-.59,1.34-.89l.17-.13c.44-.3.87-.62,1.29-.95l.18-.14.4-.32h0l.31-.27.53-.43.13-.11c.36-.31.72-.63,1.08-1l.19-.18c.85-.8,1.68-1.62,2.47-2.51.52-.59,1-1.2,1.5-1.81l.31-.4c.4-.54.8-1.08,1.17-1.62l.12-.17.11-.17c.27-.4.52-.81.78-1.22.62-1,1.23-2,1.89-2.92a26.28,26.28,0,0,1,5.69-6A26.55,26.55,0,0,1,153.68,90a26.34,26.34,0,0,1,12-3.22h.64c.75,0,1.6,0,2.59.14a9.35,9.35,0,0,0,3.16-.2c0,.24,0,.48,0,.73a8.93,8.93,0,0,1-.07,1.11A38.27,38.27,0,0,0,148,107.26l.13-.22h0l-2.37,4h18.74v66.74s0,0,0,0a31.36,31.36,0,0,0-4.47,18M189,184.1a13.82,13.82,0,0,0,.38,3.24,11.35,11.35,0,0,0,1.11,2.81,10,10,0,0,0,4.09,4,11.45,11.45,0,0,0,2.85,1c.24.05.47.11.71.14l1,.1c.66.06,1.31.09,2,.09a10.92,10.92,0,0,0,2.15-.23,12.53,12.53,0,0,0,1.91-.64,8.23,8.23,0,0,1,.88-.34c-3.76,7.24-10.27,6.34-13.92,5.11a13.35,13.35,0,0,1-2.48-1.05c-.11-.06-.18-.1-.17-.1a14.1,14.1,0,0,1-6.18-7.09A14.08,14.08,0,0,0,209.09,198a.43.43,0,0,1,.1-.13l0,.06V198c-1.1,9.49-9.48,17-18.63,17h-.25a19.22,19.22,0,0,1-16.57-9.62l0-.05a29.31,29.31,0,0,1-3.85-12.37l0,.06A21.24,21.24,0,0,0,173,211.27a21.28,21.28,0,0,1-6.51-7.41q-.15-.26-.27-.53c-.13-.25-.25-.5-.36-.76l-.08-.18a20.75,20.75,0,0,1-1.37-4.43.43.43,0,0,1,0-.09c-.07-.34-.12-.67-.17-1l0-.21c0-.32-.07-.64-.09-1-.6-7.56,2.77-15,6.71-19.85a51.78,51.78,0,0,1,7.78-7.66c1.94-1.57,3.89-3,5.85-4.44l9.68-7c-1.15,1.35-3.81,4.42-4.32,5.05-8.34,10.35-20.29,24.65-12.72,38.73a17.18,17.18,0,0,0,18.07,8.82h0a16.78,16.78,0,0,1-16-16.78,25.57,25.57,0,0,1,3.09-12.72c5.55-10.22,13.12-19,20.54-27.84,4.15-5,9.41-10.48,10.58-17a21.45,21.45,0,0,0-4.13-17.11,21.13,21.13,0,0,0-17.19-8c-5.79.27-12.62,3.2-15.21,8.7a10.84,10.84,0,0,1,1.61-1.34,23.44,23.44,0,0,1,2-1.32A22.33,22.33,0,0,1,196.53,114a19.36,19.36,0,0,1,11.56,9.54,15,15,0,0,1-1,15.23,15.7,15.7,0,0,1-4,4,8.73,8.73,0,0,1-1.78.91c-8.48,3.11-10.71-4-10.71-4,7.21,1.88,10.6-3.39,10.6-3.39a10.35,10.35,0,0,0-3.46-14.88c-6.18-3.46-14-.7-19.39,3.1-3.6,2.55-6.35,5.79-9.27,9l0,0V122.34c0-3.74,2.38-8.53,2.78-9.3a24.68,24.68,0,0,1,21.51-12.58c13.87,0,25,10.59,26.81,24.11a32.88,32.88,0,0,1-3.2,18.16c-4.38,9.31-11.8,16.68-18.35,24.45-3.91,4.63-9.61,10.43-9.61,16.92"/><path class="cls-1" d="M119.53,180.35v-.66a1.85,1.85,0,0,0-1.85-1.85v5.65l6.76-2.19a6.67,6.67,0,0,0,1.91,3.71,6.22,6.22,0,0,1,1.73,2.7l-5,2.14a7.57,7.57,0,0,0,0,4.75,7.62,7.62,0,0,1-3.48-1.5v-1.74a1.85,1.85,0,0,0-1.85-1.85v5.66a10.38,10.38,0,0,0,5.69,2,1.75,1.75,0,0,1,1.72,1.75.5.5,0,0,0,.54-.5,5.22,5.22,0,0,0-.21-1.44,5.3,5.3,0,0,1-.19-1.42,5.42,5.42,0,0,1,.52-2.32,7.53,7.53,0,0,1,.89-.22,7.2,7.2,0,0,1,1.32-.12,7.31,7.31,0,0,1,1.94.26,7.14,7.14,0,0,0,1.23.21,5.92,5.92,0,0,0,.63,0,7.25,7.25,0,0,0,2.23-.35s.26-.1.32.11-.17.4-.17.4a3.91,3.91,0,0,1-2.09.88,7.77,7.77,0,0,1-1,0c.74,1.72,1.29,3.16,1.38,3.36a7.66,7.66,0,0,0,4.74,0,7.62,7.62,0,0,1-1.49,3.48h-1.74a1.85,1.85,0,0,0-1.85,1.85h5.67a10.42,10.42,0,0,0,1.95-5.69,1.75,1.75,0,0,1,1.75-1.72.5.5,0,0,0-.5-.54,5,5,0,0,0-1.44.21,5.58,5.58,0,0,1-1.42.19,5.42,5.42,0,0,1-2.31-.52,7.26,7.26,0,0,1-.34-2.21,7.46,7.46,0,0,1,.26-1.94h0a1.81,1.81,0,0,0,.06-.3,5.9,5.9,0,0,0,6.71-8.32l-.51-1.09a9.87,9.87,0,0,1,.46-10h0l.17-.07a5.68,5.68,0,0,0,1-.55,3.53,3.53,0,0,0,1.23-2.32c0-.1,0-.2,0-.3a1.09,1.09,0,0,0,0-.19,4.12,4.12,0,0,0-.06-.6l-.42.27c-.22.15-.43.31-.64.47s-.41.34-.6.51-.38.36-.56.55-.35.39-.52.59l0,0-.14.17h0a.29.29,0,0,1-.05.07l-.11.15-.16.22,0,.06a11.14,11.14,0,0,0-.7,11.51l.5,1.06a4.62,4.62,0,0,1-4.15,6.66h-.16a4.24,4.24,0,0,1-3.15-1.62c-.14-.18-.28-.36-.39-.52a7.63,7.63,0,0,1-1.4-4.42l.09.11v0a5.18,5.18,0,0,0,1.81,1.21.12.12,0,0,0,.16-.17,5.52,5.52,0,0,1-.19-2.88,6.52,6.52,0,0,1,.52-1.62,1.56,1.56,0,0,0,.31.94.12.12,0,0,0,.23,0,8.7,8.7,0,0,1,.87-2.56l.27-.5c.14-.26.3-.52.46-.79a8.49,8.49,0,0,0,.48-.83h0l0-.05,0-.1,0-.09.05-.1a.65.65,0,0,1,0-.09l0-.1a.33.33,0,0,0,0-.1l0-.1,0-.1,0-.11,0-.09,0-.11,0-.1a1,1,0,0,0,0-.11l0-.1,0-.11s0-.07,0-.1,0-.08,0-.11a.65.65,0,0,1,0-.1,1,1,0,0,1,0-.11l0-.1,0-.12,0-.1,0-.12s0-.06,0-.1,0-.09,0-.13a.56.56,0,0,0,0-.1s0-.09,0-.13,0-.06,0-.09a1.23,1.23,0,0,0,0-.15s0,0,0-.07v-.22a7.62,7.62,0,0,0-2.88-6l.43.1a.12.12,0,0,0,.1-.21,7.57,7.57,0,0,0-5.54-1.6l-.42.06a.36.36,0,0,0-.29.25l-.25.8-.22,0a2.2,2.2,0,0,0-1.47,1l-2.11.88a.43.43,0,0,0-.28.44.45.45,0,0,0,.12.28c0,.33.25,1.62.79,1.69l.66-.19h0l.1,0c.6-.16,1.38-.28,1.59.09,0,0,.46,1-.14,1.24a6.84,6.84,0,0,1-.84.11l-.52,0-.31,0s-.33,1,.29,1.28a5,5,0,0,1,1.5-.23c.11,0,.54,0,.64,0l.32,0a7.09,7.09,0,0,0,2.28-.65,3.12,3.12,0,0,1-1.64,1.11s-.52.18-.93.28a3.68,3.68,0,0,0-.46.16,7.17,7.17,0,0,0-2.6,1.91l-6.48-3.05.11-.07v-1.19a1.86,1.86,0,0,0-1.16-1.72,1.41,1.41,0,0,0-.69-.18v4.4l5.43,3.91,2.14-.58a.33.33,0,0,1,.43.17.31.31,0,0,1-.13.42Z"/><path class="cls-1" d="M91.81,197.81a7.65,7.65,0,0,1-4.74,0,7.55,7.55,0,0,0,1.5,3.48h1.74a1.86,1.86,0,0,1,1.85,1.85H86.49a10.33,10.33,0,0,1-1.95-5.69,1.76,1.76,0,0,0-1.76-1.72.51.51,0,0,1,.51-.54,5,5,0,0,1,1.44.21,5.53,5.53,0,0,0,1.42.18,5.42,5.42,0,0,0,2.31-.51,7.31,7.31,0,0,0,.35-2.22,7.22,7.22,0,0,0-.26-1.93h0a1.35,1.35,0,0,1-.05-.3,5.9,5.9,0,0,1-7.31-5.72,5.83,5.83,0,0,1,.6-2.6l.51-1.09a9.91,9.91,0,0,0-.46-10h0l-.17-.07a5.29,5.29,0,0,1-1-.55,3.51,3.51,0,0,1-1.23-2.33c0-.1,0-.19,0-.3v-.19a3.44,3.44,0,0,1,.07-.6l.42.27c.22.15.43.31.63.47s.41.34.6.51.38.36.56.55.35.39.51.59l0,0,.14.17.05.07.11.15.15.22,0,.06a11.14,11.14,0,0,1,.7,11.51l-.5,1.06a4.61,4.61,0,0,0,4.14,6.66h.16a4.25,4.25,0,0,0,3.15-1.62c.15-.18.28-.36.39-.52a7.54,7.54,0,0,0,1.4-4.42l-.09.1v0a5,5,0,0,1-1.81,1.21.13.13,0,0,1-.16-.17,5.4,5.4,0,0,0,.19-2.88,6.76,6.76,0,0,0-.52-1.62,1.55,1.55,0,0,1-.31.94.12.12,0,0,1-.23,0,8.36,8.36,0,0,0-.87-2.56,3.23,3.23,0,0,1-.26-.5l-.47-.79a7.42,7.42,0,0,1-.48-.83h0l0-.05-.05-.1,0-.09,0-.1a.63.63,0,0,1,0-.09.39.39,0,0,1,0-.1l0-.1,0-.1,0-.1,0-.1,0-.1,0-.11s0-.07,0-.1l0-.11,0-.1,0-.11a.48.48,0,0,0,0-.1s0-.07,0-.11a.8.8,0,0,1,0-.1.89.89,0,0,1,0-.12l0-.1a.89.89,0,0,1,0-.12v-.1l0-.12a.57.57,0,0,0,0-.1s0-.09,0-.13,0-.06,0-.1a1.1,1.1,0,0,0,0-.13.43.43,0,0,0,0-.09,1.38,1.38,0,0,0,0-.15v-.07c0-.07,0-.15,0-.22a7.62,7.62,0,0,1,2.88-6l-.42.1a.12.12,0,0,1-.1-.21,7.6,7.6,0,0,1,5.55-1.6l.41.06A.38.38,0,0,1,95,165l.25.8.21,0a2.16,2.16,0,0,1,1.47,1l2.11.87a.42.42,0,0,1,.28.44.42.42,0,0,1-.12.28c0,.32-.25,1.62-.79,1.68l-.66-.19h0l-.1,0c-.59-.16-1.38-.28-1.59.09,0,0-.46,1,.14,1.24a5.61,5.61,0,0,0,.83.11l.52,0,.31,0s.32,1-.29,1.28a4.85,4.85,0,0,0-1.5-.23c-.1,0-.54,0-.64,0l-.32,0a7.08,7.08,0,0,1-2.27-.66,3,3,0,0,0,1.64,1.11s.53.18.93.28a3.42,3.42,0,0,1,.46.16,7.12,7.12,0,0,1,2.6,1.91l6.48-3.05-.11-.07v-1.19a1.84,1.84,0,0,1,1.16-1.71,1.41,1.41,0,0,1,.69-.18v4.4l-5.38,3.88L99,176.65a.34.34,0,0,0-.44.17.32.32,0,0,0,.13.42l6.15,3.11v-.66a1.85,1.85,0,0,1,1.85-1.85v5.65l-6.76-2.19A6.71,6.71,0,0,1,98,185a6.27,6.27,0,0,0-1.73,2.7l5,2.14a7.55,7.55,0,0,1,0,4.74,7.54,7.54,0,0,0,3.48-1.5v-1.74a1.85,1.85,0,0,1,1.85-1.85v5.66a10.33,10.33,0,0,1-5.69,1.95,1.76,1.76,0,0,0-1.72,1.76.51.51,0,0,1-.54-.5,5,5,0,0,1,.21-1.44,5.34,5.34,0,0,0,.19-1.42,5.5,5.5,0,0,0-.51-2.31,6.8,6.8,0,0,0-.89-.22,7.35,7.35,0,0,0-1.33-.13,7.83,7.83,0,0,0-.83.06l.43-2.75a.32.32,0,0,0-.22-.36.33.33,0,0,0-.39.19Z"/><path class="cls-1" d="M131.3,133.88a14.45,14.45,0,0,0-12.28-7.7,14,14,0,0,0-13.24,0,14.44,14.44,0,0,0-12.28,7.7,11.25,11.25,0,0,0-2.14,18.47A14,14,0,0,0,102.14,161a9.32,9.32,0,0,1,7.77,8.94l0,24.43a7.13,7.13,0,0,1-6.54,6.81H102a1.94,1.94,0,0,0-1.94,1.94h24.78a1.94,1.94,0,0,0-1.94-1.94h-1.45c-6.4-.87-6.54-6.45-6.54-6.81V170a9.23,9.23,0,0,1,7.18-8.83l.36-.07a14,14,0,0,0,11-8.69,11.25,11.25,0,0,0-2.13-18.47m-.36,15.59-.71.61-.35.87a10.05,10.05,0,0,1-6.58,6h0a18.49,18.49,0,0,0-3.1,1l-.06,0c-.18.18-.34.38-.53.55l-.09.07c-.17.15-.34.3-.51.43s-.42.32-.63.46a10.62,10.62,0,0,1-11.95,0l-.63-.46-.52-.43-.07-.06c-.18-.17-.34-.36-.52-.54l-.09,0a18.34,18.34,0,0,0-3.1-1h0a10.08,10.08,0,0,1-6.58-6l-.35-.87-.71-.61a7.44,7.44,0,0,1,1.41-12.21l1-.55.55-1a10.67,10.67,0,0,1,9-5.67l.9,0,.78-.42a10.18,10.18,0,0,1,9.62,0l.79.42.89,0a10.68,10.68,0,0,1,9,5.67l.55,1,1,.55a7.43,7.43,0,0,1,1.41,12.21"/><path class="cls-1" d="M136.3,119.38a39.07,39.07,0,0,1-8.37,3.52h24.78v53.75a40.57,40.57,0,0,1-1.07,9.24,40,40,0,0,1-3.73,9.84c-.19.36-.39.72-.59,1.07a40.31,40.31,0,0,1-69.82,0c-.21-.35-.4-.71-.6-1.07a40,40,0,0,1-3.73-9.84,40.57,40.57,0,0,1-1.07-9.24V122.89H97.33a40.05,40.05,0,0,1-8.58-3.52H68.6v57.27a43.62,43.62,0,0,0,5.21,20.75c.21.39.42.77.64,1.16a43.83,43.83,0,0,0,75.91,0c.22-.38.43-.77.64-1.16a43.42,43.42,0,0,0,4.06-10.7,43.87,43.87,0,0,0,1.16-10V119.38Z"/><polygon class="cls-1" points="162.97 120.26 162.09 119.38 160.4 121.07 158.71 119.38 157.82 120.26 159.52 121.95 157.84 123.64 158.71 124.52 160.4 122.83 162.09 124.52 162.97 123.64 161.28 121.95 162.97 120.26"/><polygon class="cls-1" points="66.77 120.26 65.89 119.38 64.2 121.07 62.51 119.38 61.63 120.26 63.32 121.95 61.64 123.64 62.51 124.52 64.2 122.83 65.89 124.52 66.77 123.64 65.08 121.95 66.77 120.26"/><polygon class="cls-1" points="162.97 161.44 162.09 160.56 160.4 162.25 158.71 160.56 157.82 161.44 159.52 163.13 157.84 164.82 158.71 165.7 160.4 164.01 162.09 165.7 162.97 164.82 161.28 163.13 162.97 161.44"/><polygon class="cls-1" points="66.77 161.44 65.89 160.56 64.2 162.25 62.51 160.56 61.63 161.44 63.32 163.13 61.64 164.82 62.51 165.7 64.2 164.01 65.89 165.7 66.77 164.82 65.08 163.13 66.77 161.44"/><polygon class="cls-1" points="76.39 204.25 75.51 203.36 73.82 205.05 72.12 203.36 71.25 204.25 72.94 205.94 71.25 207.62 72.13 208.5 73.82 206.81 75.51 208.5 76.39 207.62 74.7 205.94 76.39 204.25"/><polygon class="cls-1" points="153.56 204.25 152.68 203.36 150.99 205.05 149.3 203.36 148.41 204.25 150.11 205.94 148.43 207.62 149.3 208.5 150.99 206.81 152.68 208.5 153.56 207.62 151.87 205.94 153.56 204.25"/><polygon class="cls-1" points="114.92 222.96 114.03 222.08 112.35 223.77 110.65 222.08 109.77 222.96 111.47 224.66 109.78 226.34 110.66 227.22 112.35 225.53 114.03 227.22 114.92 226.34 113.23 224.66 114.92 222.96"/></g></g></svg>