<?xml version="1.0" encoding="utf-8"?>
<!-- Generator: Adobe Illustrator 22.0.0, SVG Export Plug-In . SVG Version: 6.00 Build 0)  -->
<svg version="1.1" id="Capa_1" xmlns="http://www.w3.org/2000/svg" xmlns:xlink="http://www.w3.org/1999/xlink" x="0px" y="0px"
	 viewBox="0 0 165.9 65.9" style="enable-background:new 0 0 165.9 65.9;" xml:space="preserve">
<style type="text/css">
	.st0{fill:#FFFFFF;}
</style>
<g>
	<g>
		<g>
			<g>
				<path class="st0" d="M33.7,47.8h7.9V51h-4.3v1h4v3h-4v1.1h4.5v3.2h-8.2V47.8z"/>
				<path class="st0" d="M48.1,59.6c-0.5,0-0.9,0-1.4-0.1c-0.4-0.1-0.9-0.2-1.3-0.4c-0.4-0.2-0.8-0.3-1.2-0.5
					c-0.4-0.2-0.7-0.4-1-0.7l2.4-2.6c0.3,0.3,0.6,0.6,1.1,0.8c0.4,0.2,0.9,0.3,1.4,0.3c0.2,0,0.4,0,0.6-0.1c0.2-0.1,0.3-0.2,0.3-0.4
					c0-0.1,0-0.2-0.1-0.3c-0.1-0.1-0.2-0.2-0.3-0.2c-0.2-0.1-0.4-0.2-0.6-0.3c-0.3-0.1-0.6-0.2-1-0.3c-0.4-0.1-0.8-0.3-1.1-0.5
					c-0.4-0.2-0.7-0.4-0.9-0.7c-0.3-0.3-0.5-0.6-0.7-0.9c-0.2-0.4-0.2-0.8-0.2-1.3c0-0.7,0.1-1.3,0.4-1.8c0.3-0.5,0.7-0.9,1.1-1.2
					c0.5-0.3,1-0.6,1.5-0.7c0.6-0.1,1.1-0.2,1.7-0.2c0.8,0,1.5,0.1,2.3,0.4c0.8,0.3,1.5,0.7,2.1,1.3l-2.4,2.4
					c-0.3-0.3-0.6-0.6-1-0.7c-0.4-0.2-0.7-0.3-1-0.3c-0.3,0-0.5,0-0.7,0.1c-0.2,0.1-0.3,0.2-0.3,0.4c0,0.2,0.1,0.3,0.3,0.4
					c0.2,0.1,0.5,0.2,0.9,0.3c0.4,0.1,0.8,0.3,1.3,0.5c0.5,0.2,0.9,0.4,1.3,0.7c0.4,0.3,0.7,0.6,0.9,1c0.2,0.4,0.4,0.9,0.4,1.5
					c0,0.7-0.1,1.3-0.4,1.8c-0.3,0.5-0.6,0.9-1.1,1.3c-0.4,0.3-1,0.6-1.5,0.8C49.3,59.6,48.7,59.6,48.1,59.6z"/>
				<path class="st0" d="M63.4,52.8l0.2,6.5H60V47.8h5l2.1,6.2h0.1l1.8-6.2h5.2v11.5h-3.8l0.1-6.5l-0.1,0l-2.1,6.5h-2.7L63.4,52.8
					L63.4,52.8z"/>
				<path class="st0" d="M77.2,47.8h7.9V51h-4.3v1h4v3h-4v1.1h4.5v3.2h-8.2V47.8z M79.2,46.9l1.8-2.3h3.4L82,46.9H79.2z"/>
				<path class="st0" d="M93.1,56l-2,3.4h-4.6l4.1-6l-3.9-5.5h4.7l1.8,3l1.7-3h4.5l-3.8,5.4l4.2,6h-4.7L93.1,56z"/>
				<path class="st0" d="M101.6,47.8h3.9v11.5h-3.9V47.8z"/>
				<path class="st0" d="M107.9,53.6c0-0.9,0.2-1.8,0.5-2.5c0.3-0.7,0.8-1.4,1.3-1.9c0.6-0.5,1.2-0.9,2-1.2c0.8-0.3,1.6-0.4,2.4-0.4
					c0.9,0,1.7,0.1,2.5,0.4c0.8,0.3,1.4,0.7,2,1.2l-2.4,2.9c-0.2-0.3-0.5-0.5-0.8-0.6c-0.3-0.1-0.7-0.2-1.1-0.2
					c-0.3,0-0.6,0.1-0.9,0.2c-0.3,0.1-0.5,0.3-0.7,0.5c-0.2,0.2-0.4,0.5-0.5,0.8c-0.1,0.3-0.2,0.7-0.2,1c0,0.4,0.1,0.7,0.2,1
					c0.1,0.3,0.3,0.6,0.5,0.8c0.2,0.2,0.5,0.4,0.7,0.5c0.3,0.1,0.6,0.2,0.9,0.2c0.4,0,0.8-0.1,1.1-0.3c0.3-0.2,0.6-0.4,0.8-0.6
					l2.4,2.8c-0.5,0.5-1.2,0.9-1.9,1.2c-0.8,0.3-1.6,0.5-2.6,0.5c-0.9,0-1.7-0.1-2.4-0.4c-0.8-0.3-1.4-0.7-2-1.2
					c-0.6-0.5-1-1.2-1.3-1.9C108,55.3,107.9,54.5,107.9,53.6z"/>
				<path class="st0" d="M119.8,53.5c0-0.9,0.2-1.8,0.5-2.5c0.3-0.7,0.8-1.4,1.3-1.9c0.6-0.5,1.2-0.9,2-1.2c0.8-0.3,1.6-0.4,2.5-0.4
					c0.9,0,1.8,0.1,2.5,0.4c0.8,0.3,1.5,0.7,2,1.2c0.6,0.5,1,1.1,1.3,1.9c0.3,0.7,0.5,1.6,0.5,2.5c0,0.9-0.2,1.8-0.5,2.5
					c-0.3,0.8-0.8,1.4-1.3,1.9c-0.6,0.5-1.2,0.9-2,1.2c-0.8,0.3-1.6,0.4-2.5,0.4c-0.9,0-1.8-0.1-2.5-0.4c-0.8-0.3-1.5-0.7-2-1.2
					c-0.6-0.5-1-1.2-1.3-1.9C119.9,55.3,119.8,54.4,119.8,53.5z M123.9,53.5c0,0.4,0.1,0.7,0.2,1c0.1,0.3,0.3,0.6,0.5,0.8
					c0.2,0.2,0.4,0.4,0.7,0.5c0.3,0.1,0.6,0.2,0.9,0.2c0.3,0,0.6-0.1,0.9-0.2c0.3-0.1,0.5-0.3,0.7-0.5c0.2-0.2,0.4-0.5,0.5-0.8
					c0.1-0.3,0.2-0.7,0.2-1c0-0.4-0.1-0.7-0.2-1c-0.1-0.3-0.3-0.6-0.5-0.8c-0.2-0.2-0.4-0.4-0.7-0.5c-0.3-0.1-0.6-0.2-0.9-0.2
					c-0.3,0-0.6,0.1-0.9,0.2c-0.3,0.1-0.5,0.3-0.7,0.5c-0.2,0.2-0.4,0.5-0.5,0.8C123.9,52.8,123.9,53.1,123.9,53.5z"/>
			</g>
		</g>
	</g>
	<g>
		<path class="st0" d="M165.3,19.8c-0.4-2.2-1.2-4.3-2.3-6.1c-0.9-1.4-2-2.7-3.3-3.7c-1.3-1.1-2.7-1.9-4.2-2.5
			c-0.2-0.1-0.4-0.1-0.6-0.2c-0.2-0.1-0.4-0.2-0.7-0.2c-0.5-0.2-1-0.3-1.5-0.4c-0.5-0.1-1.1-0.2-1.6-0.3c-2.4-0.2-4.6,0-6.8,0.7
			c-0.5,0.2-1,0.3-1.3,0.5c-0.5,0.2-1,0.4-1.5,0.7c-1.8,0.9-3.3,2.1-4.7,3.7c-1.4,1.6-2.3,3.3-3,5.1c-0.4,1-0.6,2.1-0.8,3.2
			c-0.2,1.1-0.2,2.2-0.1,3.3c0.1,1.1,0.3,2.2,0.6,3.3c0.3,1.1,0.7,2.1,1.2,3c1.5,2.9,3.7,5,6.4,6.6c2.7,1.5,5.8,2.2,9.2,2.1
			c1-0.1,1.9-0.2,2.9-0.4c-0.1,0-0.3,0-0.4-0.1c-0.1,0-0.3-0.1-0.4-0.1c-0.3-0.1-0.6-0.2-1-0.3c-0.4-0.1-0.7-0.3-1.1-0.4
			c-0.4-0.2-0.8-0.4-1.3-0.6c-0.4-0.2-0.9-0.5-1.3-0.8c-0.2-0.2-0.4-0.3-0.7-0.5c-0.2-0.2-0.5-0.3-0.7-0.5c-0.4-0.4-0.9-0.8-1.3-1.2
			c-0.9-0.9-1.6-1.9-2.3-3.1c-0.2-0.3-0.3-0.6-0.5-0.9c-0.2-0.3-0.3-0.6-0.4-0.9l-0.2-0.5l-0.2-0.5c-0.1-0.3-0.2-0.7-0.3-1
			c-0.4-1.4-0.5-2.8-0.5-4.2l0.1-1.1c0-0.2,0-0.4,0-0.5l0.1-0.5l0.1-0.5c0-0.2,0.1-0.3,0.1-0.5c0.1-0.3,0.2-0.7,0.3-1
			c0.1-0.3,0.2-0.7,0.3-1l0.2-0.5l0.2-0.5c0.1-0.3,0.3-0.6,0.4-0.9c0.2-0.3,0.3-0.6,0.5-0.9c0.7-1.1,1.5-2.2,2.3-3
			c0.4-0.4,0.9-0.8,1.3-1.2c0.2-0.2,0.5-0.3,0.7-0.5c0.2-0.2,0.4-0.3,0.7-0.5c0.5-0.3,0.9-0.5,1.3-0.7c0.4-0.2,0.8-0.4,1.2-0.6
			c0.4-0.1,0.8-0.3,1.1-0.4c0.4-0.1,0.7-0.2,1-0.3c0.1,0,0.3-0.1,0.4-0.1c0.1,0,0.3,0,0.4-0.1c0.2,0,0.4-0.1,0.6-0.1
			c0.3-0.1,0.5-0.1,0.5-0.1s-0.2,0-0.5,0.1c-0.2,0-0.4,0.1-0.6,0.1c-0.1,0-0.2,0-0.4,0.1c-0.1,0-0.3,0.1-0.4,0.1
			c-0.3,0.1-0.6,0.2-1,0.3c-0.3,0.1-0.7,0.3-1.1,0.4c-0.4,0.2-0.8,0.4-1.2,0.6c-0.4,0.2-0.8,0.5-1.3,0.8c-0.2,0.2-0.4,0.3-0.6,0.5
			c-0.2,0.2-0.5,0.3-0.7,0.5c-0.4,0.4-0.9,0.7-1.3,1.2c-0.8,0.8-1.6,1.9-2.2,3c-0.2,0.3-0.3,0.6-0.5,0.9c-0.1,0.3-0.3,0.6-0.4,0.9
			l-0.2,0.5l-0.2,0.5c-0.1,0.3-0.2,0.6-0.3,1c-0.3,1.3-0.5,2.7-0.5,4.1c0,1.4,0.2,2.7,0.6,4.1c0.1,0.3,0.2,0.6,0.3,1l0.2,0.5
			l0.2,0.5c0.1,0.3,0.3,0.6,0.4,0.9c0.2,0.3,0.3,0.6,0.5,0.8c0.7,1.1,1.4,2.1,2.3,2.9c0.4,0.4,0.9,0.8,1.3,1.1
			c0.2,0.2,0.4,0.3,0.7,0.5c0.2,0.2,0.4,0.3,0.6,0.4c0.4,0.2,0.9,0.5,1.3,0.7c0.4,0.2,0.8,0.4,1.2,0.5c0.4,0.1,0.8,0.3,1.1,0.4
			c0.3,0.1,0.7,0.2,1,0.3c0.1,0,0.3,0.1,0.4,0.1c0.1,0,0.3,0,0.4,0.1c0.2,0,0.4,0.1,0.6,0.1c0.2,0,0.9,0.1,1.3,0.2
			c0.3-0.1,0.7-0.3,1-0.5c1-0.5,2-1.1,3-1.8c1-0.7,1.8-1.5,2.6-2.4c0.8-0.9,1.4-1.9,2-3c0.6-1.1,1-2.2,1.3-3.3
			C165.6,24.3,165.7,22,165.3,19.8z M149.2,29.5c-3.9,0-7.1-3.2-7.1-7.1c0-3.9,3.2-7.1,7.1-7.1c3.9,0,7.1,3.2,7.1,7.1
			C156.3,26.3,153.1,29.5,149.2,29.5z"/>
		<polygon class="st0" points="31.5,6.4 16.2,38.7 26.3,38.7 30.9,29.3 26.6,17.8 31.5,28.1 31.5,28.1 36.5,38.7 46.6,38.7 		"/>
		<g>
			<path class="st0" d="M6.7,29.4H0.4l1.1,9.1h5.4c0.8,0,1.6-0.1,2.3-0.3s1.4-0.4,2-0.7c1.4-0.7,2.5-1.8,3.4-3.2
				c0.9-1.4,1.4-2.9,1.4-4.5v-8.6C15.9,29.7,6.7,29.4,6.7,29.4z"/>
			<path class="st0" d="M6.7,6.2v22.2c8-0.1,9.2-7.3,9.2-7.3v-15H6.7z"/>
		</g>
		<path class="st0" d="M58,29.3c-9.3-0.5-9.3-8.7-9.3-8.7c0.7,6.6,7.3,7.4,9.3,7.5V6.2h-9.3v32.3H66v-9.2H58z"/>
		<path class="st0" d="M70.1,6.2v30.3c6-7.6,8.2-19.7,8.2-19.7c-1.4,13.8-8.2,21.7-8.2,21.7h9V6.2H70.1z"/>
		<path class="st0" d="M100.8,27c-0.2-0.8-0.6-1.6-1-2.3c-1-1.6-2-3.1-3-4.7c-0.9-1.3-1.8-2.7-2.7-4.1l0,0c0,0-6.8-8.2-2.1-9.5
			c0,0-3.6,1.5,2.8,8.8h6.2l-1.2-9H94c-1.9-0.1-3.6,0.3-5,1.1c-1.5,0.8-2.7,1.9-3.6,3.4c-0.4,0.6-0.7,1.4-0.9,2.2
			c-0.2,0.8-0.3,1.6-0.3,2.5c0,0.8,0.1,1.7,0.3,2.4c0.2,0.8,0.5,1.5,0.9,2.2c1.1,1.6,2.2,3.2,3.3,4.7c0.9,1.3,1.9,2.7,2.8,4.1l0,0
			c0,0,6.2,7.7,1.5,9.4c0,0,3.8-1.6-2.2-8.9h-6.6l1.2,9.1h6.8c1.5,0,2.9-0.4,4.3-1.1c1.3-0.7,2.4-1.7,3.2-3c0.5-0.7,0.9-1.4,1.1-2.3
			c0.2-0.8,0.4-1.7,0.4-2.6C101.1,28.7,101,27.9,100.8,27z"/>
		<path class="st0" d="M124.7,27.6C124.6,27.6,124.6,27.6,124.7,27.6c-0.1,0.1-0.1,0.1-0.1,0.1c-0.3,0.3-0.7,0.6-1,0.8h0
			c0,0-9.2,6.4-19-0.9c0,0,6.9,4.3,14.1,2c-3.6-0.5-6.3-3.5-6.3-7.2c0-4,3.2-7.3,7.3-7.3c1.9,0,3.6,0.7,4.9,1.9
			c0.1,0,0.1,0.1,0.2,0.1c0.3,0.2,0.5,0.5,0.8,0.8l7.2-5.5c-0.2-0.3-0.5-0.6-0.8-1c-1.2-1.3-2.5-2.3-3.9-3.1c-1.4-0.8-3-1.4-4.6-1.7
			c-2.5-0.5-5-0.5-7.4,0.1c-2.4,0.6-4.6,1.6-6.5,3.2c-2.2,1.8-3.8,3.9-4.8,6.3c-1.1,2.4-1.5,5.1-1.2,8c0.2,1.6,0.6,3,1.2,4.4
			c0.6,1.4,1.4,2.6,2.3,3.9c1.8,2.1,3.8,3.7,6.1,4.7c2.3,1,4.9,1.5,7.7,1.4c2.3-0.2,4.5-0.7,6.6-1.8c2-1,3.8-2.5,5.3-4.3l-7.2-5.5
			C125.1,27.1,124.9,27.3,124.7,27.6z"/>
	</g>
</g>
</svg>
