<svg xmlns="http://www.w3.org/2000/svg" viewBox="0 0 135.46 51.55"><defs><style>.cls-1{fill:#fff;}</style></defs><title>turismo</title><g id="Capa_2" data-name="Capa 2"><g id="footer"><path class="cls-1" d="M66.69,19.79a.33.33,0,0,1,.37.37V22a.33.33,0,0,1-.37.37H62.44V33a.33.33,0,0,1-.37.37H59.76a.33.33,0,0,1-.37-.37V22.37H55.14a.33.33,0,0,1-.37-.37V20.15a.33.33,0,0,1,.37-.37Z"/><path class="cls-1" d="M79.16,33.05a.35.35,0,0,1-.29.41,5.48,5.48,0,0,1-1.48.23,2.84,2.84,0,0,1-2.6-1.13,4.68,4.68,0,0,1-3.3,1.13,4.07,4.07,0,0,1-3-1.18A4.25,4.25,0,0,1,67.3,29.4V24.33a.33.33,0,0,1,.37-.37h2.18a.33.33,0,0,1,.37.37V29a2.27,2.27,0,0,0,.55,1.59,1.92,1.92,0,0,0,1.49.6,2.12,2.12,0,0,0,1.55-.57,2,2,0,0,0,.58-1.52V24.33a.33.33,0,0,1,.37-.37H77a.33.33,0,0,1,.37.37v6.1c0,.51.21.76.64.76a2.77,2.77,0,0,0,.6-.06.34.34,0,0,1,.43.31Z"/><path class="cls-1" d="M88.51,23.83a.35.35,0,0,1,.29.43l-.25,1.86a.33.33,0,0,1-.43.29,5.52,5.52,0,0,0-1.07-.1,2.58,2.58,0,0,0-1.85.68,2.42,2.42,0,0,0-.72,1.84V33a.33.33,0,0,1-.37.37H81.94a.33.33,0,0,1-.37-.37v-6.1a.67.67,0,0,0-.76-.76l-.43.06c-.28,0-.43-.1-.43-.31V24.31a.41.41,0,0,1,.29-.43,4.32,4.32,0,0,1,1.4-.23A2.33,2.33,0,0,1,84,25a4.09,4.09,0,0,1,3.17-1.32A4.26,4.26,0,0,1,88.51,23.83Z"/><path class="cls-1" d="M93,21.77a1.86,1.86,0,0,1-2.47,0,1.51,1.51,0,0,1-.5-1.15,1.48,1.48,0,0,1,.5-1.14,1.89,1.89,0,0,1,2.47,0,1.48,1.48,0,0,1,.5,1.14A1.51,1.51,0,0,1,93,21.77ZM90.72,33.38a.33.33,0,0,1-.37-.37V24.33a.33.33,0,0,1,.37-.37H92.9a.33.33,0,0,1,.37.37V33a.33.33,0,0,1-.37.37Z"/><path class="cls-1" d="M99.68,33.69a6.15,6.15,0,0,1-3.32-.81,3.08,3.08,0,0,1-1.5-2.24c0-.26.08-.39.37-.39l1.9,0a.51.51,0,0,1,.43.27q.41,1,2.12,1a2.45,2.45,0,0,0,1.16-.23.7.7,0,0,0,.44-.62c0-.34-.21-.58-.62-.73a7.08,7.08,0,0,0-1.52-.33,15.7,15.7,0,0,1-1.79-.32,3,3,0,0,1-1.52-.87,2.5,2.5,0,0,1-.62-1.79,2.59,2.59,0,0,1,1.18-2.21,5.32,5.32,0,0,1,3.13-.83,5.7,5.7,0,0,1,3.06.77,2.86,2.86,0,0,1,1.43,2c0,.26-.08.39-.35.39h-1.92a.42.42,0,0,1-.39-.23,1.38,1.38,0,0,0-.67-.69,2.34,2.34,0,0,0-1.12-.26,2.32,2.32,0,0,0-1.1.22.67.67,0,0,0-.42.59.83.83,0,0,0,.63.78,6.59,6.59,0,0,0,1.54.38c.6.09,1.2.2,1.8.34a3.06,3.06,0,0,1,1.52.88,2.45,2.45,0,0,1,.63,1.77,2.61,2.61,0,0,1-1.2,2.25A5.67,5.67,0,0,1,99.68,33.69Z"/><path class="cls-1" d="M118.95,23.65A4.1,4.1,0,0,1,122,24.83a4.26,4.26,0,0,1,1.16,3.12V33c0,.25-.13.37-.39.37H120.6a.33.33,0,0,1-.37-.37V28.33a2.29,2.29,0,0,0-.54-1.59,1.87,1.87,0,0,0-1.46-.6,1.6,1.6,0,0,0-1.28.57,2.28,2.28,0,0,0-.49,1.52V33a.33.33,0,0,1-.37.37H113.9a.33.33,0,0,1-.37-.37V28.33a2.4,2.4,0,0,0-.51-1.59,1.66,1.66,0,0,0-1.34-.6,1.86,1.86,0,0,0-1.43.57,2.15,2.15,0,0,0-.53,1.52V33a.33.33,0,0,1-.37.37h-2.18a.33.33,0,0,1-.37-.37v-6.1a.67.67,0,0,0-.76-.76l-.43.06c-.28,0-.43-.1-.43-.31V24.31a.41.41,0,0,1,.29-.43,3.89,3.89,0,0,1,1.4-.23,2.35,2.35,0,0,1,2.29,1.19,4.46,4.46,0,0,1,3.3-1.19A3.72,3.72,0,0,1,115.55,25,4.28,4.28,0,0,1,118.95,23.65Z"/><path class="cls-1" d="M134,32.31a6.13,6.13,0,0,1-7.75,0,4.75,4.75,0,0,1-1.47-3.63A4.78,4.78,0,0,1,126.24,25,6.14,6.14,0,0,1,134,25a4.78,4.78,0,0,1,1.47,3.65A4.75,4.75,0,0,1,134,32.31Zm-5.73-1.74a2.78,2.78,0,0,0,3.71,0,2.55,2.55,0,0,0,.71-1.89,2.59,2.59,0,0,0-.71-1.9,2.75,2.75,0,0,0-3.71,0,2.59,2.59,0,0,0-.71,1.9A2.55,2.55,0,0,0,128.26,30.58Z"/><path class="cls-1" d="M32,5.48A18.72,18.72,0,1,0,5.49,32L18.72,45.2,32,32A18.72,18.72,0,0,0,32,5.48M29.37,29.36,18.72,40,8.08,29.36a15,15,0,1,1,21.29,0"/><path class="cls-1" d="M12,12a9.51,9.51,0,1,0,13.45,0A9.52,9.52,0,0,0,12,12m12.56,6.73a5.83,5.83,0,1,1-1.71-4.13,5.8,5.8,0,0,1,1.71,4.13"/><rect class="cls-1" x="6.42" y="47.52" width="23.49" height="4.03"/></g></g></svg>