<svg xmlns="http://www.w3.org/2000/svg" viewBox="0 0 177.35 199.14"><defs><style>.cls-1{fill:#ffa245;}</style></defs><title>region-norte_1</title><g id="Capa_2" data-name="Capa 2"><g id="slide"><path class="cls-1" d="M176.66,71.8a4.16,4.16,0,0,0-2.37-.31,17,17,0,0,1-.36-2.11c0-1.4.5-3.33-1.21-3.33s-2.55.61-4.24.61-3.22-1.51-4.24-1.51c-2.1,0-2.83-.4-3.64,1.21-.13.27-3.33,3.42-3.33,1.51a18.93,18.93,0,0,1,.3-4.54c.36-1.43,1.19-1.79,2.12-2.73.66-.66,2.73-1.56,2.73-3a43.67,43.67,0,0,0,0-4.54,6.65,6.65,0,0,1-3-1.51c-3.15-2.36-1.52,0-3.64,0s-3.08-.35-4.24-1.51c-.06-.06-3.64-2.35-3.64,0,0,1.79,0,3.73-2.12,2.12-1-.75-2.28-2.72-3.33-.61-.59,1.18-1.13,3.33-2.42,3.33-1.5,0-3.25.35-2.73,2.42.42,1.67.59,2.27,2.42,2.73.86.21,4.12,2.12,1.51,2.12-1.24,0-4,.28-2.12,2.12.26.26,1.64,3.12,1.82,2.42.27-1.09.44-2.73,2.12-2.73,1.43,0,3.33.49,3.33,1.82,0,1.65-.3,2.9-.3,4.54,0,2.53,1.92,2.42,3.33,2.42l.33.25a18.84,18.84,0,0,1-2.17,1.53.9.9,0,0,0-.58-.27c-1.39,0-2.56.3-4.24.3-1.46,0-3.45-.35-4.85,0-1,.25-2.42.91-2.73,2.12s-.4,2.93-1.82,3.64c-.88.44-3,1.18-3,2.42,0,1.69.7,3.57.3,5.15-.32,1.29-2.77,3.63-3.56,4.15l.12.35c-1.28-.61-1.94-.35-3.53,0-1.4.35-3.41,0-4.85,0-1.13,0-2.11-1.8-2.73-2.42-1.26-1.26-2.66,1.56-3,2.07a21.78,21.78,0,0,0,0-2.68c-1-.17-4.54-1.12-4.54.91,0,2.65-.06,3-2.73,3.64-.64.16-3.72.57-4.85,0a9.13,9.13,0,0,0-4.24-.61c-3.34,0-.74-2-2.12-2.73-1.09-.54-2.39-1.14-2.67-2.14.31,0,.68,0,1.16,0,1.27,0,.69-2.77,1.82-3.33,1.51-.75,2.48-1.29,2.12-2.73a6.65,6.65,0,0,1-.3-3.64c.31-1.23,2.9-2.47,3.64-3,1-.76,1.66-2.71,2.12-3.64.81-1.63,2.12-1.24,2.12-3.33,0-.91-2.29-1.75-3-2.12a5.54,5.54,0,0,1-2.73-2.73c-.57-1.14-.3-2.89-.3-4.24s2.86-.91,3.94-.91c1.88,0,1.88-.64.3-1.82-.48-.36.56-.25,1.82-1.51s.91-2.95.91-4.54c0-2.09.89-2.42,2.73-2.42,1.59,0,1.51-1.79,1.51-3.33,0-2.21-.87-2.38-1.82-3.64a4.43,4.43,0,0,1-1.21-3.64c0-1.83-.58-2.62-.91-3.94-.42-1.69-1.51-1.5-1.51-3.64A7.79,7.79,0,0,0,103,25.45c-.31-.51-3.1,2-3.33,2.12-1.51.76-.21,1.82-2.73,1.82-1.2,0-3.15-1.58-4.24-2.12-1.72-.86-2.64-1.51-4.85-1.51-.56,0-1.18,2.11-2.42,2.42-2.28.57-2.66-.57-3.33,2.12a20.71,20.71,0,0,1-1.21,4.24c-.58,1.17-.65,3.51-.91,4.54A29.35,29.35,0,0,1,78.8,43c-.63,1.57-1.21,2.43-1.21,3.94V51.5A13.31,13.31,0,0,1,77,55.44c-.33,1.34-2.46,1.24-3.33,2.12-1.35,1.35-1.38,2.37-.91,4.24.35,1.41,1.69,1.92,2.12,3.64s-.8,3.11-1.21,3.94a16.84,16.84,0,0,0-1.82,4.24,15.86,15.86,0,0,0-.61,4.24,17.42,17.42,0,0,1-.61,4.54c-.55,2.22-3.19-1.23-3.33-1.51-.63-1.26-.94-2.21-1.51-3.64s-1.7-2.27-2.12-3.94a15.76,15.76,0,0,0-1.21-3.94c-.59-1.18-.3-3.14-.3-4.54a19.22,19.22,0,0,0-.3-4.24,3.33,3.33,0,0,0-.33-.85l0-.06c.17-.69.08-3.52.91-3.94,1.48-.74,1.49-2.1,2.73-3.33,1-1,2.73-1.5,2.73-3,0-1.22,1.52-3.64.3-3.64-1.72,0-3.14-1.82-1.51-1.82,1.84,0,3.1-.57,1.21-1.51-.53-.26-2.85-1.39-1.51-2.73.84-.84,2.73-.79,2.73-2.12,0-.49.29-4.4,0-4.54C68.43,32.68,66,32.3,67,30.3c.59-1.18,3-.84,3.33-2.12.14-.56-.39-4.37.3-4.54a18.73,18.73,0,0,0,3.94-1.82A28,28,0,0,1,78.5,20c1-.25,2.42-1.51,3.64-1.51,2.44,0,1.65-1.09,1.86-4l0-2.76c-.18-3,1.12-2.64,1.5-4.17.13-.53,1-3.61-.3-3.94-1.52-.38-2.57-1.82-3.64-1.82H72.44c-1.57,0-3.65.38-5.15,0C66.31,1.57,65.88,0,64.87,0H55.78c-1.79,0-3,.61-4.54.61-1,0-3.72-.43-4.24.61-.66,1.32-2.73,2-2.73,3,0,1.64.4,4,2.42,4.54,0,.2-.2.56,0,.61.76.19,4.17.9,3.94,1.82-.44,1.75-2.12,1.67-2.12,3.33a8.72,8.72,0,0,0,.61,4.24,4,4,0,0,0,2.42,2.42c2.36.59.35,1.9,1.21,3.64.58,1.16,3.58,2.45,2.42,3s-3.93-.59-3.64.61c.15.61.73,1.33,2.12,2.73s3.07.95,4.24,2.12c.39.39,2.57,2.12,2.73,2.73,0,.1.86,4,.3,4.24-.73.36-2.73,1-2.73,2.42,0,2.42-.49,1.67-1.51,3s-1.58.94-3.33,1.82c-2.32,1.16-1.52.94-2.12,3.33-.52,2.1-.52,3.39-2.42,3.64l.05.23c-1.07-.53-2.58-.28-3.69-.83-1.79-.89-2.72,1.5-3,2.12-.91,1.83-3,0-3.33-.3s1.82-2.09,1.82-3.33a18.9,18.9,0,0,1,.3-4.54c.48-1.92,1.38-2.09,2.12-3.94.61-1.53,1.82-2.21,1.82-3.94,0-1.92-1.12-2.28-2.12-3-1.38-1-1.21-1.46-1.21-3.64s-.38-2.42-2.42-2.42-2.6-.2-3,1.51,1,2.14.61,3.64c-.29,1.17-2.82-1.91-3-2.12-.64-.64-3-.75-3.64-.91C29,32.76,27.36,35,26.39,35.45c-1.92,1-3.21.21-.61,1.51,2,1,2.73.6.91,2.42-1.42,1.42,1.62,2.63,1.82,2.73s0,4.32,0,4.85c0,2.09.58,2.45-.61,3.64-.84.84-3.38-2.47-3.64-2.73-1.36-1.37-1.56-1.63-2.12.61,0,.16-3.54,1.92-3.94,2.12-1.73.86-1.21,2.35-1.21,4.24,0,2.3-.19,2.12-2.42,2.12-1.95,0-1.51,2.85-1.51,4.24v5.45c0,.93-2.79,2.3-3.33,3C8.67,71.1,7.82,71,7.3,73c-.43,1.71-.27,3.8-.61,5.15-.51,2-1.48,1.79-2.73,3a4.94,4.94,0,0,0-1.82,3.94v4.24c0,1.5-.91,2.54-.91,4.54,0,1.74,1,2.24,1.82,3,1.19,1.19-1.91,3.12-2.12,3.33-.85.85,1.37,3.38,1.51,3.94.48,1.92-1.28,2.19-2.12,3-1.15,1.15.94,3.64,1.82,3.64,1.95,0,1.88-.91,3.64-.91,2.15,0,1.82-.7,1.82-2.73,0-1.76,1.94-1.51,3.33-1.51,1,0,.61,3.47.61,4.24s3.64.91,4.24.91c1.37,0,2.79.36,4.24,0s2.11-1.51,3.33-2.12A3.7,3.7,0,0,1,27.91,110c.48,1,0,3.45,0,4.54,0,.86-1.7,2.77-2.12,3.33-1,1.35-1.21,1.44-1.21,3.64a.88.88,0,0,0,.47.85c-.64.69-.66,1.66.43,2.48,2.1,1.57-.35,2,.61,3.94.45.89.63,2.44,1.51,3.33,1.13,1.13,2,1.41,3,2.42.76.76,2.7,3,3.94,3,1.88,0,2.54-.61,3.94-.61,1.71,0,3.53.3,4.85.3a18,18,0,0,1,4.24.3c1.24.31,2.76,1.82,3.94,1.82,2,0,3.76.61,5.76.61a14.58,14.58,0,0,0,3.53-.44v2.55c0,1.43-1.1,1.19-2.14,1.71-.87.43,1.67,1,2.36,1.71s1.83.67,2.78.86c.62.12.86,1.69.86,2.57,0,1.34.68,2.19.43,3.21a21.09,21.09,0,0,1-2.78,1.07c-.8.4-.64,2.19-.64,3,0,1.18-1.4,1.53-1.71,2.78-.37,1.5.64,1.92,1.5,2.36s.64,1.27.64,2.57c0,1-1.15,1.86-1.5,2.57-.68,1.36.5,2.43,1.07,3s2.62-.15,3.21,0c1,.25.39,2.07.86,3,.59,1.18,1.51,1.06,2.36.21s1.82-1.08,2.14.21a2.58,2.58,0,0,1-.86,2.57c-.87.87-.62.56-.49,1.33a1.69,1.69,0,0,0,2.59,1.07c1.64-1,1.36,1.38,1.54,2.11s1.75.46,2.36,1.07c1.17,1.17,1.93-.4,1.93-1.29,0-1.54,1-1.1,1.93-.86.56.14.21,1.14.21,1.71,1.07.27,1.45,2.39,3.43,2.78,1.54.31,2,.38,2.36,1.93.3,1.19-.44,1.75-.64,2.57-.3,1.22,2,1.52,2.78,1.71,1.08.27.63,1.55.43,2.36-.26,1-2.16.17-3.21.43s-1.22.72-1.71,1.71c-.59,1.19-1.5-.25-1.5,1.71,0,.77,1.74.54,1.93,1.29.31,1.25.09,1.42,1.29,1.71.21.83,3.18-.41,3.21-.43a10.86,10.86,0,0,1,2.36-1.07c.76-.19.43-2.4.43-3,0-.37,2.88-.21,3.21-.21H97a18.11,18.11,0,0,0,1.5-2.14,8.23,8.23,0,0,1,2.57-1.5c1.14-.57-1.1-1.88-1.29-1.93a3.94,3.94,0,0,0-3,.21c-1.06.53-.86-.49-.86-1.71,0-2-.27-1.71-2.36-1.71a6.93,6.93,0,0,1-3-.43c-.77-.39-.64-1.6-.64-2.57,0-1.59.16-1.68,1.07-2.36.6-.45,2.62-.28,3.21-.43,1.72-.43-.22-2-.43-2.14a5.62,5.62,0,0,1-2.14-1.29c-.79-.79.05-2.28.43-2.78a4.3,4.3,0,0,1,.39-.44c.77,1.29,3.06-.64,3.26-.84.79-.79,1.7-1.49,2.36-2.14s1.23-1,2.78-.64c1.2.3,1.7,1.87,1.93,2.78.3,1.19,2-.27,2.14-.86a19.88,19.88,0,0,0,0-3.64c0-1.42,4,1.24,4.07,1.29.9.68,2.28-.7,2.57-1.29.37-.75-.1-2.74-.21-3.21a12,12,0,0,0-1.29-2.57,3.47,3.47,0,0,1,.21-3c.34-.68,1.5-1.23,2.14-1.71,1.11-.83,1.71-1.48,1.71-2.78,0-1,.21-2.15.21-3.21,0-1.49.72-1.56,1.5-2.14,1-.73,1.07-1.77,1.07-3.21,0-1-.88-1.73-1.5-2.36a7.56,7.56,0,0,1-1.29-2.14s-2.95-.2-3-.21c-.52-.13-1.56-1.34-1.93-1.71s-.21-2.26-.21-3v-1.18c.53.45,1,.92,1.28,1.21,1.45,1.44,2.14.89,3,0,1.15-1.15.81-1.64,2.73-2.12,1.69-.42,2-1.82,4.24-1.82.79,0,1.21,3.71,1.21-.3,0-1.43,1.59-1.59,2.42-2.42,1.11-1.11,1.57-2.48,2.73-3.64a7.12,7.12,0,0,0,2.42-3.64c.32-1.3,2.8-1.51,3.94-1.51h4.54c2.3,0,1.88-1.27,1.51-2.73a6.84,6.84,0,0,1-.14-1.79,1.45,1.45,0,0,0,.75-.33c1.23-1.23,3-1.76,4.24-3l.91-.91c.5-.5,2.67-3.39,3.64-2.42.61.61,1.24,2.73,2.42,3s2.84.25,4.24.61,3.94,1.08,3.94-.91c0-1.34-.48-3.59.91-3.94s3.08.06,4.54-.3c1-.26,2.38-1.21,3.94-1.21,2.62,0,1.31-.68,1.82-2.73.37-1.5.91-2.3.91-3.94,0-2.13-1.2-1.36-3-1.82-.26-.06-4.62-.22-3-1.82.32-.32,2.91-1,3-1.51a3.82,3.82,0,0,0,.15-1.51h.76c2,0,2.46-.65,3.64-1.82.29-.29,3.47-2,3.33-2.12-1-1-3.12-.09-3.94-.91-1.48-1.48-.3-1.51-.3-3.33,0-1.1-.48-3.59,0-4.54.82-1.64,2.07-1.21,3.94-1.21s1.51-1.63,1.51-3.33C177.26,75.2,177.67,72.31,176.66,71.8Zm-84,100.93.15-.13C92.8,172.73,92.75,172.76,92.67,172.74Z"/></g></g></svg>