<svg xmlns="http://www.w3.org/2000/svg" viewBox="0 0 126.82 132.47"><defs><style>.cls-1{fill:#45afff;}</style></defs><title>region-centro</title><g id="Capa_2" data-name="Capa 2"><g id="slide"><path class="cls-1" d="M126.47,82.86a3.64,3.64,0,0,0-2.12.45,3.14,3.14,0,0,1-2,.3c-.4-.08-1.4-1.51-.76-1.67,0,0,2.25-.92,1.36-1.36-.62-.31-.62-.61-1.67-.61-.27,0-.61,0-.93.05-.47,0-.89-.06-.89-.51,0-1.09.45-.9.45-2,0-.75-.33-2,.61-2a8,8,0,0,0,2.57,0c.14-.07,1.1-1.82.61-1.82-.73,0-1.7.12-2.12-.3s-1-.69-1.51-1.21a17.12,17.12,0,0,0-2.12-2,4.78,4.78,0,0,0-1.36-.3c-1,0-.76-.56-.76-1.51a1.59,1.59,0,0,0-.4-1.26.91.91,0,0,0-.81-.1c-1,.24-.95.34-1.67,1.06s-.31,1.06-1.51,1.06a4.81,4.81,0,0,1-2-.91c-.16-.63,0-2-.61-2.27-.87-.44-1.06-.32-1.06-1.51,0-.57.19-2.12-.45-2.12-.49,0-2.12.5-2.12-.15,0-.86.39-1.82-.76-1.82-.87,0-1.67.29-1.67-.76,0-1.48.58-.58,1.36-1.36.59-.59.61-.84.61-2,0-.14,0-1,0-1.64a4.74,4.74,0,0,1,1.39-.93c.55-.14,1.76.1,2.27-.15a5.34,5.34,0,0,0,1.67-1.06c.42-.42.42-.84.76-1.51a8.54,8.54,0,0,1,1.67-2c.39-.39,1.36-1.21,1.82-1.21h2.27c.65,0,1.77.25,2.12-.45a2.41,2.41,0,0,0,.31-1.36c0-.23,0-.52,0-.91.05.1.15.42.15.3,0-1.66-.34-.49-1.06-1.21-.47-.47-1.67-.4-1.67-1.06s-.16-2.12.45-2.42c.34-.17,1.83-.75,1.06-1.51-.15-.15-1.51-.61-1.51-.76a6.28,6.28,0,0,1,.45-2c.28-1.12.36-.66,1.06-1.36.54-.54,1.34-.28,2-.76A3.63,3.63,0,0,0,121,32.87c.22-.43.91-1.08,1.06-1.67a12.72,12.72,0,0,0,.15-2.58,5.33,5.33,0,0,1,.61-2.73c.37-.74.9-.94,1.67-1.51.41-.31,2-.45,1.51-1.36l-.08-.14c-.4-.69-.6-.27-1.13,0a3.68,3.68,0,0,1-2.27.61,1.93,1.93,0,0,1-1.67-1.36s-.32-1.29-.51-1.77a.54.54,0,0,0-.1-.2,4.86,4.86,0,0,0-2.27-.76,3.34,3.34,0,0,1-2.12-.45c-.39-.39-.86-.71-1.36-1.21s-.61-.93-.61-2c0-.71.3-2.73-.15-3.18,0-.11.11,0,.18,0l-.18-.17a2.32,2.32,0,0,0-1.82-.91c-1.44,0-.89-.43-1.67-1.21A5.13,5.13,0,0,0,108,9.09c-1.21,0-1.4.54-2.27.76a10.58,10.58,0,0,1-2.27.15c0-.85-.57-1.16-1.36-.76a2.36,2.36,0,0,0-1.22,1.14,2.12,2.12,0,0,0-.14.37c-.1.41,0,1.73-.45,2a7.68,7.68,0,0,1-2,.45c-.83.21-.55.71-1.21,1.21-.32.24-2.13,1.34-2.42.15-.1-.39-.53-1.74-1.36-.91-.26.26-.38,1.85-.61,2a10.87,10.87,0,0,1-1.44.62c.11-.39.13-.72-.07-.77-.7-.17-1.36.11-1.36-.91s-1.21-1.21-1.21-1.06c0,.64-.56,1.77-1.06.76-.43-.86-.5-1.51-1.51-1.51-1.45,0-1,.12-1.67.76s-1.43.19-1.67-.76c-.13-.52-.25-2-.91-2.12a2.61,2.61,0,0,0-2.12.3c-.58.29-1.43,1.67-1.82,1.67-1.37,0-.95,0-1.51-.76-.11-.14-1.51-1.54-1.51-.45,0,.56.15,1.78-.3,2.12a13.41,13.41,0,0,1-2.12,1.67c-.39.2-1.35.64-1.67,0-.07-.15-2.1-1.71-2.27-1.36s-.5,1.53-1.06,1.67-2.39-.21-2.88.15a10.72,10.72,0,0,1-1.11.74.91.91,0,0,0-.86-.44,13.78,13.78,0,0,1-3.94-.61c-.93-.23-1.59-2.73-2.12-2.73-3.21,0-.12-1.9-1.21-2.73s-3-2.25-3-4.54c0-1.93-2.22-1.21-3.94-1.21H43.76a7,7,0,0,1-3.94-1.21c-1.38-.69-1.63-.86-2.73.61s-1,2.42-3.33,2.42c-1.9,0-2.89.1-4.24-.91-1.19-.89-3-.63-3-2.42,0-1.41-.27-2.23-.9-2.58V1.8c0,.11-3.25,2.18-3.43,2.36C21,5.34,20.88,7,20.88,8.65v3.86c0,1.22-1.73,2.38-2.36,3-1.26,1.26.75,1.58,1.29,1.71,1.36.34,1.29,1.3,1.29,2.57,0,.86,1.75-.46,2.36-1.07A11.22,11.22,0,0,1,26,17c1.21-.6,1.29,1.63,1.29,2.36,0,1.37.12,2-.64,2.78-1,1-2.11.15-2.78,1.5-.18.36.07.83.39,1.31a6.35,6.35,0,0,1,.9,1.48,9.83,9.83,0,0,1,0,2.8c0,.29,0,.58,0,.84,0,.8-1.54,1.33-2.14,1.93-.93.93-.61,1.81-1.71,2.36a5.69,5.69,0,0,0-1.29,1,3.11,3.11,0,0,0,.42,2.08c.46.46,2.42,1.67,2.42,2.42,0,1.34.16,3.22-.61,4.24A5.81,5.81,0,0,0,20.74,48c0,1.24.12,2-.27,2.37.24.37.45.71.58,1,.31.63-1.91,2.18-2.12,3-.42,1.68-.25,3.33,1.51,3.33H25c1.61,0,1.8-.27,1.82,1.08,0,.28,0,.62,0,1,0,2.31-.08,2.22-2.12,2.73s-2.69-.34-3.94.91c-.34.34-.57.6-.78.81l.18.1a7.81,7.81,0,0,0-.76,2.27,10.76,10.76,0,0,0,.15,2.12c0,.08,2.24,0,2.42,0a10.25,10.25,0,0,0,2.42-.15c.9-.22,1.51-.45,1.51.61a11.51,11.51,0,0,1-.15,2.27c-.05.21-1.28,1-1.51,1.36-.74,1,.75.76,1.36.76,1.12,0,.76.81.76,1.82s-.8.59.45,1.21c.71.36.28,1.63.76,2.27s0,1.32.45,1.82a.61.61,0,0,0,.41.13,3.05,3.05,0,0,1-.76,2.1,7.2,7.2,0,0,0-1.06,1.82c-.28.57-1.17,1-1.67,1.21s-1,1.87-1.21,2.27c-.51,1,.22.91,1.06.91s1.7.15,2.57.15,1.22,1.21,1.82,1.51a1.6,1.6,0,0,0,.42.15,1.67,1.67,0,0,0-.57.3,4,4,0,0,0-1.13,1.37l-.24.45c-.35.71-.72,1-1.06,1.67-.17.34.15,1.55.15,2.12a1,1,0,0,0,.19.65H25a8.83,8.83,0,0,1-2.27,0c-.17-.23-1.05-1.51-1.51-1.51-.91,0-.84-.61-1.82-.61s-1.49.3-2.27.3c-.52,0-2,.22-2-.3V93.16c0-.71,0-1.76-1.06-1.21-.55.28-.44,1.51-1.06,1.51-.32,0-2.08.23-2.12.15s-.36-.73-.56-1.23c-.23,0-.49,0-.81,0-1.61,0-1.66-.51-2.79-1.07C6.46,91.2,4.67,89.91,4,90.06a16.08,16.08,0,0,1-3.21.21,4,4,0,0,0-.74.08,3.54,3.54,0,0,0,1.17,1.2c.74.37,2.05.35,1.71,1.71-.28,1.1-1.29,1.32-1.29,2.36v3.21c0,1,0,2.34.86,3s2.14.71,2.14,1.93c0,.77.34,2.54,0,3.21A5.27,5.27,0,0,0,4,110.19a2.56,2.56,0,0,0,1.71,1.93c1.13.28,1.71.5,1.71,1.93a14.79,14.79,0,0,1,0,3.21c-.14.54-.49,1.85-1.07,2.14a17.44,17.44,0,0,0-2.79,1.5c-.65.49-2,1.64-1.07,2.57a4.07,4.07,0,0,1,1.29,2.36c0,1.16.46,2.36-.86,2.36A7.77,7.77,0,0,1,1.15,128c.06.6.4,1.09,1.74,1.09H6.1c.89,0,.65,1.72,1.29,2.36a3.17,3.17,0,0,0,2.36,1.07c1.52,0,1.4-.65,1.93-1.71s-.22-2.12.21-3c.14-.28,2.36-.43,2.78-.43,1.43,0,1.7-1,1.93-1.93.37-1.47.59-1-.43-2.36-.9-1.2-.48-1.07,1.29-1.07,1.19,0,.8-1.44,1.5-2.14s2.08.4,2.57.64c.93.47.83,1.17,2.14,1.5.1,0,.36-2.94.43-3.21a10.35,10.35,0,0,0,.86-2.79,2.63,2.63,0,0,1,.44-1.07c.2.38.63.44,1.1.67.74.37.8.88,1.51,1.06,1,.26,1.2-.06,1.82.76s.78.76,1.82.76a4.82,4.82,0,0,0,2-.61,11.78,11.78,0,0,0,0-2.27c0-.72.44-1.17.61-1.82.22-.9.61-.73.61-1.67a3.41,3.41,0,0,0-.91-1.82,2,2,0,0,1,.3-2.12l0,0h1.89a2.76,2.76,0,0,1,2,.61c.81.61-.13,1.21,1.36,1.21a10.75,10.75,0,0,1,2.12.15c.87.22,1,.9,1.36,1.51s1.1.61,2,.61c1.12,0,1.05.89,1.36,1.51.21.43.55.23.91.3.39.78,2.12.61,2.88.61s1.6.15,2.42.15h0a11.08,11.08,0,0,1,2.68.3,12.69,12.69,0,0,0,2.73,0h2.42c.09,0,1.52-.83,1.82-.91s.66-.81.93-1.33a2.6,2.6,0,0,1,.29-.49,13.73,13.73,0,0,0,1.36-2c.4-.53,1.74-.3,2.42-.3h2.27c.89,0,1.06-.77,1.06-1.51s.79-1.15,1.21-1.36.06-1.73,0-2c-.26-1,.47-1.06,1.06-.91.76.19-.56,1.51.76,1.51,1.05,0,1.36.21,1.36-.91,0-.73-1-.9-1.21-1.67-.28-1.14.53-.91,1.36-.91,1.05,0,1.31.11,1.67-.61.45-.91.84-.93,1.06-1.82a3,3,0,0,1,.11-.36c.19-.48.44-.6.95-.85a1,1,0,0,0,.45-.65,4.16,4.16,0,0,0,.16-1.16v-.15h.15c.45,0,1-.45,1.82-.45s1.61-.15,2.58-.15c.54,0,.3-1.58.3-2.12V91.45a3.29,3.29,0,0,0-.62-1.71l.13-.16a2.59,2.59,0,0,1,.41-.18l.23-.07A2.65,2.65,0,0,0,86.29,88a17.5,17.5,0,0,1,2-2l.1-.11h1c1.12,0,1.21-.08,1.21,1.06A1.81,1.81,0,0,1,90,88.62c-.46.46.6,1.36,1.06,1.36h2.73c.42,0,1.12,1.13,1.21,1.51.18.71-1,1.17-1.36,1.36a.35.35,0,0,0-.17.18c-.21.5.84,1.58,1.08,1.64,1,.25,1.23-.48,1.51-1.06s0,1.41,0,2.12c0,1-.36,1.06-1.36,1.06-.56,0,.14,2.1.15,2.12s0,.08,0,.12l.56,0c1,0,1.55.24,2-.61.33-.66.43-1.67,1.36-1.67,1.19,0,1.11.48,1.67.76a4.38,4.38,0,0,0,2.12.3c1.07,0,1.21,0,1.21-1.06,0-.81-1-2.42-.15-2.42a12.54,12.54,0,0,0,2.58.15c.16-.16.57-1.73.91-1.82a3.36,3.36,0,0,1,2.12,0,6.15,6.15,0,0,1,1.82.91c.54.54,1.25,1.1,1.82,1.67s.64.61,1.67.61h2.27c1,0,1.06-.23,1.82-.61s1.31-1,2.12-1.36l.12-.14c.36-.47,1.35-2,.49-2,0,.1.1.3,0,.3-.55,0-2-.06-1.21-1.06a9.18,9.18,0,0,0,.91-1.67c.38-.76.81-.61,1.82-.61a10.14,10.14,0,0,0,1.25,0c.39,0,.72-.16.72-.44,0-1,.05-1.39.91-1.82a1.48,1.48,0,0,0,1.06-1.67c0-.21,0-.57,0-.92C126.83,83.38,126.78,82.86,126.47,82.86Z"/></g></g></svg>