<svg xmlns="http://www.w3.org/2000/svg" viewBox="0 0 118.7 167.95"><defs><style>.cls-1{fill:#8fd661;}</style></defs><title>region-valles</title><g id="Capa_2" data-name="Capa 2"><g id="slide"><path class="cls-1" d="M78.94,167.72h0c.26.06.53.11.81.16a5.77,5.77,0,0,0,.89.07.81.81,0,0,0,.8-.37c.25-.44.06-1.22.06-2a4.07,4.07,0,0,0-1.29-2.36c-.7-.7-.11-1.52.5-2.09l.3-.26.27-.21a9.37,9.37,0,0,1,1.44-.86l1.29-.62.06,0a.8.8,0,0,0,.13-.1l.07-.05a2,2,0,0,0,.35-.51c.05-.1.1-.21.14-.31s.11-.29.16-.43.11-.35.15-.5l.06-.24a5.64,5.64,0,0,0,.09-1.59c0-.28,0-.57-.05-.84s0-.54,0-.78c0-1.25-.45-1.57-1.32-1.82l-.4-.11a2.42,2.42,0,0,1-1.59-1.55,2.77,2.77,0,0,1-.14-1.68,6.91,6.91,0,0,1,.51-1.61l.15-.31c.34-.68,0-2.44,0-3.21,0-1.22-1.36-1.34-2.14-1.93a1.67,1.67,0,0,1-.28-.26h0a4.36,4.36,0,0,1-.57-2.72v-3.21c0-.71.47-1,.86-1.53a2.13,2.13,0,0,0,.42-.82,1,1,0,0,0-.45-1.23c-.38-.21-.89-.3-1.26-.49a3.32,3.32,0,0,1-1.09-1.1l-.07-.1.37,0a3.33,3.33,0,0,1,.37,0,21.89,21.89,0,0,0,2.36-.09c.28,0,.57-.07.85-.13a2.11,2.11,0,0,1,1.12.31l.43.23c.32.18.61.36.84.51l.39.24.27.15a3.63,3.63,0,0,0,2.52.92c.32,0,.58,0,.81,0h0c.19.49.45,1,.56,1.23l.09,0c.26,0,1-.08,1.57-.13l.46,0c.62,0,.51-1.24,1.06-1.51a1.53,1.53,0,0,1,.36-.13.63.63,0,0,1,.27,0,.45.45,0,0,1,.31.28,2.13,2.13,0,0,1,.12.8c0,.1,0,.19,0,.28h0v2.27c0,.13.09.22.24.27a6.38,6.38,0,0,0,1.73,0c.78,0,1.4-.3,2.27-.3h0a1.51,1.51,0,0,1,.57.09c.43.17.57.51,1.25.51.2,0,.48.25.75.54a12.24,12.24,0,0,1,.77,1,1.34,1.34,0,0,0,.7.09h.37l1.19-.07h2a1,1,0,0,1-.19-.65c0-.57-.32-1.78-.15-2.12.34-.68.71-1,1.06-1.67l.24-.45a4,4,0,0,1,1.13-1.37,1.67,1.67,0,0,1,.57-.3,1.6,1.6,0,0,1-.42-.15c-.6-.3-1-1.51-1.82-1.51s-1.68-.15-2.57-.15-1.57.1-1.06-.91c.2-.4.78-2.06,1.21-2.27s1.38-.64,1.67-1.21a7.2,7.2,0,0,1,1.06-1.82,3.05,3.05,0,0,0,.76-2.1.61.61,0,0,1-.41-.13c-.5-.5,0-1.2-.45-1.82s0-1.92-.76-2.27c-1.25-.63-.45-.14-.45-1.21s.36-1.82-.76-1.82c-.61,0-2.1.23-1.36-.76.24-.31,1.46-1.16,1.51-1.36a11.51,11.51,0,0,0,.15-2.27c0-1.05-.62-.83-1.51-.61a10.25,10.25,0,0,1-2.42.15c-.19,0-2.4.08-2.42,0a10.76,10.76,0,0,1-.15-2.12,7.81,7.81,0,0,1,.76-2.27l-.18-.1c.21-.21.45-.47.78-.81,1.25-1.25,2-.43,3.94-.91s2.12-.41,2.12-2.73c0-.43,0-.77,0-1h0a1.65,1.65,0,0,0-.16-.93c-.12-.15-.33-.17-.7-.17l-1,0H98.23a2.19,2.19,0,0,1-.59-.07,1.37,1.37,0,0,1-.78-.54,3.5,3.5,0,0,1-.15-2.72A5.41,5.41,0,0,1,98,92.54l.2-.21a4.09,4.09,0,0,0,.6-.78.49.49,0,0,0,.06-.44c-.06-.12-.15-.27-.24-.43l-.33-.53a1.24,1.24,0,0,0,.28-.87c0-.39,0-.88,0-1.5a5.17,5.17,0,0,1,.65-2.66,11.35,11.35,0,0,1,.86-1.28,2.25,2.25,0,0,0,.25-.42,4.71,4.71,0,0,0,.34-1.58c.06-.77,0-1.57,0-2.24,0-.33-.37-.74-.83-1.14s-1.33-1-1.59-1.28a1,1,0,0,1-.11-.18,3.71,3.71,0,0,1-.31-1.9c.2-.18.39-.36.6-.53a4,4,0,0,1,.69-.45c.76-.38.85-.92,1.14-1.52a2.86,2.86,0,0,1,.58-.84,2.24,2.24,0,0,1,.24-.2l.13-.09.57-.37c.6-.37,1.2-.76,1.2-1.27,0-.12,0-.26,0-.38,0-.42,0-.86.07-1.31,0-.08,0-.15,0-.23s0-.44,0-.66,0-.17,0-.26a4.27,4.27,0,0,0-.1-.79h0a1.52,1.52,0,0,0-.13-.33c0-.09-.1-.18-.16-.27l0-.08c-.25-.37-.56-.77-.77-1.15l0-.09a2.27,2.27,0,0,1-.12-.25,1.18,1.18,0,0,1,0-.16,1,1,0,0,1,0-.16.6.6,0,0,1,.06-.28h0a1.42,1.42,0,0,1,.92-.81l.36-.08a5.51,5.51,0,0,0,.75-.15,1.8,1.8,0,0,0,.75-.45,2.59,2.59,0,0,0,.25-.28,1.82,1.82,0,0,0,.29-.57,2.23,2.23,0,0,0,.07-.31,12.14,12.14,0,0,0,0-1.62c0-.64-.06-2.43-.88-2.46a.83.83,0,0,0-.4.1,11.22,11.22,0,0,0-2.57,1.71,5.35,5.35,0,0,1-2.07,1.35c-.17,0-.28-.07-.28-.28a8.82,8.82,0,0,0,0-1.28,2.08,2.08,0,0,0-.08-.35,1.28,1.28,0,0,0-.63-.73,2.14,2.14,0,0,0-.52-.2h-.06c-.41-.1-1.38-.28-1.59-.77a.49.49,0,0,1,0-.15,1,1,0,0,1,.41-.78c.35-.35,1-.87,1.58-1.47a2.45,2.45,0,0,0,.77-1.53V48.41c0-.4,0-.81,0-1.2v-.08a6.76,6.76,0,0,1,.32-1.7,4.06,4.06,0,0,1,.53-1,3.7,3.7,0,0,1,.39-.47h0l.15-.11.1-.07.28-.19.34-.23,1.22-.81a11.75,11.75,0,0,0,1.34-.95v-1.8h0V39c0-1.47-.6-1.55-.86-2.57a4.14,4.14,0,0,0-2.36-1.93,4.38,4.38,0,0,1-3-.86c-.62-.62-1.5-2.36-.64-2.57.55-.14,2.63,0,2.78-.64a21.55,21.55,0,0,0,.21-4.07c0-2.3,1.39-2.58,1.5-3,.21-.84-1.13-3.4-1.29-2.78-.29.21-.77.3-.86.64s-1.83,2.11-2.14.86-1-.86-2.36-.86c-1.08,0-2.7-.33-3,.86-.19.76,0,2.57-1.07,2.57-1.76,0-2.06.44-1.88-2.41a9.21,9.21,0,0,0-.18-2.65c-.21-.92-.28-1.74.78-2,.89-.22.82-2.32,1.71-2.14a15.07,15.07,0,0,0,3.21.43c1.05,0,2.4-.23,2.57-1.07.3-1.52.54-1.29,2.14-1.29.57,0,3.21,0,3.21-.43,0-.7.52-2.91,1.71-1.71l1.71,1.71a2.91,2.91,0,0,0,2.36,1.29c.68,0,3,.18,3-.86,0-1.58-.13-1.71,1.5-1.71h3.64c1.2,0,1.78-.77,2.36-1.93a5.33,5.33,0,0,0,.43-3.21c-.39-1.54-1.07-.21-2.14-1.29s-.93-1.87-1.5-3S114.46,0,113.24,0H110c-1.52,0-1.71.13-1.71,1.71V4.93c0,1.61-.13,1.5-1.71,1.5-1.32,0-1.64-.06-2.14-1.07a8.62,8.62,0,0,0-2.14-2.57c-.74-.74-1.42-1.62-2.36-1.5L93.1,1.07,86.89,6.86V9.43c0,1.09.23,2.33-.43,3.21a19.25,19.25,0,0,1-2.14,2.14,8.73,8.73,0,0,1-1.93,1.71,11.51,11.51,0,0,0-2.14,1.07c-.67.67-1.24,1.45-2.14,2.36-.27.27-1.82.85-1.93,1.29A9.54,9.54,0,0,0,76,24.64c.14.7.69,2.57-.64,2.57A14.66,14.66,0,0,1,72.11,27a6.17,6.17,0,0,0-3,0c-1.19.3-2,1-3,1.29a4,4,0,0,1-2.78-.21c-.91-.46-.26-2.78-1.29-2.78-1.34,0-1.71.87-1.07,2.14.43.87-.44,1.49-1.71.86a6.93,6.93,0,0,1-2.36-2.14c-.76-1-.9-.83-2.14-.21C54,26.28,53.26,27,52.4,27c-.59,0-2.57.39-2.57,1.07s.34,2.54,0,3.21-.55,2.36-1.5,2.36c-1.84,0-1.24-.51-2.36-1.07a2.46,2.46,0,0,0-2.79.21c-.11.11-2.07,2.43-1.5,3,0,.07,0,.15,0,.22a2.89,2.89,0,0,1-1.49-.86c-1-1,.44-2.78-1.29-2.78a2.37,2.37,0,0,0-2.36,1.29c-.88,1.18-.13,1.29-2.14,1.29H26.48c-.8,0-1.31-1.09-2.14-1.71s-2.47.46-3,.86c-.71.53-.64,2.37-.64,3.21a13.59,13.59,0,0,0,.21,3.21c.32,1.29,1.74-.39,1.71,1.77,0,1,0,2.09,0,3.13A2.59,2.59,0,0,1,21.34,48c-1.05.79-1.07,1.24-1.07,2.78,0,.15,1.07,1.44,1.07,2.57,0,1.79-1.76-.48-2.14-.86-1.18-1.18.28,1.28.86,1.71,1.11.83.62,2,0,2.79-.37.49-.52,1.89-.86,2.57-.49,1,.45,1.58.64,2.36.38,1.53-1.07.73-1.07,2.14s-.11,2,.64,2.78c.22.22,2.73.51,3,.64,1.16.58,1.61-.21,2.78-.21a1.32,1.32,0,0,1,.62.13,15,15,0,0,1-1.69,1.37,10.66,10.66,0,0,0-1.71,2.14c-.74,1-.33,1.07-2.14,1.07-1.56,0-1.88.59-2.78,1.5-.71.71-.43,2-.43,3,0,1.55.23,1.05,1,.44-.23.92-.77,1.47-2.55,1.47H11c-1.23,0,.9,2.44.61,3.64a4.27,4.27,0,0,1-3.08,3,3.39,3.39,0,0,1-.79.07c-5.21,0-6.45-.57-7,1.74-.21.83.61,2.85.61,4.24,0,1.77-1.65,1-1.21,2.73.32,1.28,2.28-1.33,3.33-2.12.27-.2,3.29.61,4.24.61s3.78,2.15,4.54,2.73c1.1.82,2.09-.72,2.73,1.82.43,1.72-.08,2.86.61,4.24.27.54,1,.66,1.82.67v3.84a3.23,3.23,0,0,0-1.79,1.48c-.33.66,1.69,1.6,1.93,1.71.84.42-.94,2.78-1.07,3-.37.62-1.38,1.26-1.5,1.5-.42.83,1.27,1.45,1.5,2.36.16.65-1.72,1.72-1.93,2.57-.38,1.52,1.42,1.42,2.14,2.14,1.06,1.06-1.7,2.78-2.14,3-1.21.61-1.07,1.11-1.07,2.57s1.5,1.71,2.57,1.93c1.37.27,1.12,1.31.86,2.36s-.47,2.3-.64,3a2.73,2.73,0,0,0,1.5,3c1,.26,2.16,1.73,3,2.36s1.2,1.42,2.36,1.71,1.68,1.41,2.14-.43c.25-1,1.77-.64,2.78-.64,0,0,.62,1.71,2.14,1.71,1.11,0,.1,2.17,0,2.36-.7,1.4,0,1.46,1.07,1.71A5.94,5.94,0,0,1,34,146.1a4.94,4.94,0,0,1,1.71,2.78c.24,1,.16,1.88.86,2.57s1.94.43,3,.43c1.48,0,1.36-.72,2.14-1.5a5.67,5.67,0,0,1,2.36-.06v1.35a4.42,4.42,0,0,0,1.71,3,3.7,3.7,0,0,1,.43,2.79c-.25,1-1.07.74-1.07,2.36,0,.68,2.67.94,3.21,1.07,1.2.3,1.55-1,1.93-1.71.54-1.07,1.9-.86,2.79-.64s.64.86,1.71-.21c.69-.69,2.08.06,2.79.87a1.38,1.38,0,0,0-.43,1.92c.4.81,1.86.71,2.57,1.07,1.08.54,1,1.22,1.71,1.93.48.48,2.54-.21,3-.21a11.86,11.86,0,0,1,3,0c1.51.38,1.75-.18,2.78.86.69.69,1.77.42,2.57.21,1.4-.35,1.75.94,2.14,1.71.54,1.08,1.15.86,2.57.86a6.74,6.74,0,0,1,1.48.19Z"/></g></g></svg>