<svg xmlns="http://www.w3.org/2000/svg" viewBox="0 0 215.66 212.86"><defs><style>.cls-1{fill:#b7ff45;}</style></defs><title>region-sur-y-sureste</title><g id="Capa_2" data-name="Capa 2"><g id="slide"><path class="cls-1" d="M215.08,135c1.16-1.16.33-1.82-.43-2.57-.48-.48-1.77-.43-2.72-.43a9.1,9.1,0,0,0,.15-1.71c0-1.19.5-2.57-.86-2.57a2.86,2.86,0,0,0-2.36.86,17.36,17.36,0,0,0-1.93,2.14c-.72.72-1.14,1.5-2.57,1.5-.86,0-2.46-.29-3,.43-.32.42-.63,2.14-1.5,2.14-1.62,0-1.5-.43-1.5-1.93,0-1.21.34-2.78-1.29-2.78s-1.44.37-2.36,1.29a2.38,2.38,0,0,1-2.57.86c-.74-.15-3-.18-2.78-1.07.37-1.5,1.79-.57,2.14-1.29a7.82,7.82,0,0,0,.64-3,14.77,14.77,0,0,1,0-3.21c.13-.54.66-2.57-.21-2.78-1.18-.29-.86-1-.86-2.36a13.11,13.11,0,0,0-.21-3.21c-.29-1.16-.78-1.68-2.36-1.29s-.36,1-1.93.64a8.59,8.59,0,0,1-2.78-1.29,3.07,3.07,0,0,1-1.07-2.36c0-2.37-.4-1.26-1.71-2.57-.17-.17-.35-.33-.53-.48,1-.11,2.41-.39,1.17-1-1.54-.77-1-.46-.64-1.93s.56-1.5,2.14-1.5,1.11-1.93.86-1.93c-1.74,0-1.42-.56-2.36-1.5-.44-.44-1.93-1.48-1.93-2.14,0-1.45.64-1.32.64-2.57,0-1.61-1.51-.6-1.07-2.36.24-1,1.44-3,.43-3-1.34,0-1.77-1.71-.86-1.71.46,0,3,.28,3-.43s-.05-2.58.86-2.36,1.38,1.5,2.36,1.5c.7,0,2.81.34,3-.43.24-1,0-2.2.21-3.21.33-1.3.79-.94,1.29-1.93s.43-1.46.43-3a2.2,2.2,0,0,0,0-.43c-.13-.65-1.54-1.88-1.07-2.36.15-.15,1.44-2,.64-2.78s-1.48-.47-2.57-1.29-.66-1.33-1.29-2.57c-.49-1-1.07-2.09-2.14-2.36s-2.46.05-3.43-.43-.51-2.57-1.5-2.57c-1.48,0-2.83-.21-4.28-.21h-3.86c-.74,0-2.67-.33-3.21.21a7.13,7.13,0,0,1-.57.5l-.07-.08c-.89-.67-1.06-2.3-2.14-2.57a17.53,17.53,0,0,1-3.21-.64c-.56-.28-2.32-.88-3.21-.43a13.18,13.18,0,0,0-2.14,1.5c-.94.7-1.29,1.72-2.14,2.57-.52.52-1.08,1.18-1.61,1.78a9.61,9.61,0,0,1-.54-.93,18.78,18.78,0,0,1-2.36-1.07l-2.14-2.14c-.74-.74-.79-1.66-1.71-2.36-.49-.37-1.3-.21-1.93-.21L134.59,59l-1.39-11.1-2.55-.41a15.44,15.44,0,0,1,1.53-1.37c.18-.18-1.61-1.61-1.93-1.93-.83-.83.64-2.56.86-2.78.89-.89,1.37-.81,1.93-1.93a5.6,5.6,0,0,0,.64-3,15.83,15.83,0,0,0-.86-2.57,4.43,4.43,0,0,1,0-.86L101.33,22.1l-.24,4.39-6.37-1.22L92.45,9.69,66.09,0,55.17,18,40.27,14.6c-.82.33-2.36.73-2.36,2.14a7.18,7.18,0,0,0,1.5,2.36c.71.71-1.54.88-1.93,1.07-1.26.63.73,2.23.86,2.36.94.94.43,1.22.43,2.57,0,1,.6.82,1.29,1.5.32.32,0,2.7,0,3.21A3.44,3.44,0,0,0,41.35,32c.32.32,0,2.7,0,3.21,0,1.45,1.08,1.71,2.36,1.71a6.17,6.17,0,0,1,3.43.86c1.11.55,2.36-.43,2.36,1.07,0,1.76.36,1.25,1.71,1.93,2,1-.67,1.35-1.29,1.5-.86.21-1.29,1.62-1.29,2.36a6.75,6.75,0,0,0,.43,3.21c.55,1.09.21,1.23,1.29,1.5.61,1.23,3.25,0,3.64-.21.69-.35,1.33-1.91,1.5-2.57.27-1.09,2.27,0,3,0s1.29-1.07,3-1.07c1.17,0,2.1.21,3.21.21.48,0,.89,0,1.27-.06.35.57.81,1.2,1,1.66.38.76.68,1.51,1.06,2.27.15.3.67.35,1.18.34-.06.53-.23,1-.72,1-.92,0-1.11-.45-1.82-.45s-1.66-.19-2.12.15a1.88,1.88,0,0,0-.91,2,10.45,10.45,0,0,1,0,2.27c-.26,1-.53,1-1.21,1.67s-1.06.67-1.06,1.82v2.42a10.45,10.45,0,0,0,0,2.27c.13.54.16,1.36.91,1.36a3.85,3.85,0,0,1,.88.13c-5,2.58-10.85,5.84-12,6.22s-.1,5.37.87,8.9l-9.23-2.26L22.28,84,18.42,95.79l6.86,6.56-4.71-.56L3.21,112.29,0,118.07c.32,1,2,1.83,2.57,3,.49,1-.1,2.37.43,3.43.43.86,1.73,1.09,2.36,1.93A5.63,5.63,0,0,1,6,129.85c0,1-1,2.78.64,2.78,1.28,0,.64-1.18,1.71-1.71a2.44,2.44,0,0,1,3.43,1.5c.2.82,2.24.64,3,.64H18c1.35,0,2.14-.41,2.14,1.07,0,1.67.71,1.32,1.93,1.93a7,7,0,0,0,3,1.07c1.4,0,1.41.48,1.71,1.71.14.57,2.36.08,2.36-1.07,0-1.53-1.42-.72-.21-1.93.61-.61,2.65.36,2.78.43,1.59.8.29,1.71,2.57,1.71.7,0,2.24,1.66,3.21,2.14,1.55.77,1.5-.71,1.5-1.71v0c.65,0,1.07.32,1.07,1.52,0,1.4-.38,2,.86,2.36a4.38,4.38,0,0,0,3.21-.64c.55-.27.77-2.27,1.07-2.57s2.7,0,3.21,0c.95,0,1.5-.43,2.78-.43a7,7,0,0,0,3-.43c1-.49,1.09-1.74,1.71-2.36a12.33,12.33,0,0,0,1.5-2.78,5.87,5.87,0,0,1,2.14-2.14c.73-.55,3-.21,4.07-.21a5.6,5.6,0,0,0,2.78-.64c.84-.42.64-.84.17-1.19l1.15-.17c.23.67,1,.93,1.9,1.36s-.16,2.57-.21,2.78c-.36,1.45.31,2.3.86,3.21a14.27,14.27,0,0,0,1.93,2.78,8.76,8.76,0,0,0,2.36,1.93c.21.11,0,3.13,0,3.43,0,.76,2.24.8,2.78,1.07,1.43.72,1.69,1.69,2.78,2.78.92.92,1.71,1,1.71,2.57,0,.9,1.28,1.92,1.71,2.36.59.59,2.57.79,3.43,1.07l.08,0a4.06,4.06,0,0,1-.08.84c-.22.88-1,.64-1.29,1.93s.56,2-.86,2.36c-1,.26-.86,2.62-.86,3.43v3.43c0,1,.14,1.42.47,1.38-.15.63-.34,1.32-.47,1.83s-1.26,1.54-1.71,2.14c-.87,1.16-.25,1.89.64,2.78,1.17,1.17,1.5.05,1.5,2.14a14.46,14.46,0,0,1-.21,3.43c-.19.74-1.41.91-1.71,2.14a14.78,14.78,0,0,0,0,3.21c0,1.3-1,1.27-1.29,2.57-.28,1.12.43,2.06.43,3.21a5.32,5.32,0,0,0,.64,3c.55,1.11.8,1.65,1.93,1.93.75.19,1.13,1.62,1.5,2.36s-.05,2.56-.21,3.21a15.68,15.68,0,0,0,0,3.43c0,1.34,1.38.86,2.57.86,1,0,1.82-.21,3-.21a5.58,5.58,0,0,1,3,.64A17.54,17.54,0,0,1,96,208.26c.61.61,2.67-.37,2.78-.43.88-.44.18-1.5,2.14-1.5a12.7,12.7,0,0,0,3-.21c1.17-.29,2,.43,3.21.43a3.35,3.35,0,0,0,2.78-.86c.59-.59.92-1.32,1.71-1.71a7.69,7.69,0,0,1,3-.21c1.11,0,1.29-1.41,1.29-2.36,0-.74,1.76-1.63,2.36-1.93l.1-.06a2.28,2.28,0,0,0,1.4.28c1.55,0,1.79-.35,2.57.43.95.95-.43,1.5,1.29,1.93,1,.25,1.07,1.57,1.07,2.78,0,1.37-.12,2,.64,2.78a7.42,7.42,0,0,1,1.5,2.14c.38.76,1.63,1.2,2.14,1.71a5,5,0,0,0,2.57,1.29,14.78,14.78,0,0,0,3.21,0c1.51,0,1.59-.16,1.93-1.5a4.32,4.32,0,0,1,1.5-2.78c.77-.77,2-1,2.78-1.71,1-1,.65-1.4,1.71-1.93,1.35-.68,2-.67,2.78-1.71.44-.59-.85-2.34-1.07-2.78-.64-1.28.11-1.69,1.07-1.93a14.78,14.78,0,0,1,3.21,0c.9,0,0-2.17.86-2.57,1.27-.64,1.65-.15,2.57-1.07s-.63-1.91-1.07-2.36c-.74-.74-.64-1.54-.64-2.78,0-1.08.21-1.77.21-3a2,2,0,0,0-.68-1.42,10.93,10.93,0,0,0,1.11-.94c.26-.26,3.09,1.5,3.64,1.5,1.52,0,1.62-.26,1.93-1.5.36-1.45-.5-2-1.07-2.57-.32-.32,2.63-1.53,3-1.71,1.32-.66-.41-1.71,1.71-1.71h3.64a7.31,7.31,0,0,0,3.64-1.07c.8-.4,1.51-1.72,2.14-2.36s1.61-.64,2.78-.64a13.85,13.85,0,0,0,3,0c1.28-.32,1.8.07,2.14-1.29.27-1.09,1.29-1.29,2.14-1.5,1.44-.36,1.29-.22,1.29-1.93,0-1,1.39-1.07,2.36-1.07a6.72,6.72,0,0,0,3.21-.43c1.15-.57,2.48.73,3.21,1.29a1.92,1.92,0,0,0,2.78,0c1.16-.87,2-.81,2.57.43.26.51.07,1.16.21,1.71.89,1.79,1.38,1.5,3.21,1.5.51,0,1.91-1.69,2.14-1.93.57-.57.43-1.63.43-2.78,0-1.53.65-1.61,1.71-2.14.44-.22-.4-2.68-.43-2.78a7.18,7.18,0,0,1,.21-3c.24-1,1.37-1.58,1.93-2.14.92-.92,1.6-.84,1.93-2.14a12.22,12.22,0,0,0,.43-3.21A3.15,3.15,0,0,1,208,150.2c.76-.76.86-1.72,1.5-2.57s1-1.41,1.71-2.36c.47-.63.24-2.25.43-3s2.12-.43,2.78-.43c1.16,0,0-2.32,0-2.36-.38-.75-.86-.75-.86-2.36C213.58,136,214.48,135.59,215.08,135Z"/></g></g></svg>