<svg xmlns="http://www.w3.org/2000/svg" viewBox="0 0 187.24 212.43"><defs><style>.cls-1{fill:#4945ff;}</style></defs><title>region-costa</title><g id="Capa_2" data-name="Capa 2"><g id="slide"><path class="cls-1" d="M180.94,160.19a1.4,1.4,0,0,1-.26.09,5.61,5.61,0,0,0-2.48,1.42c-.13.26-.86,2.15-1.77,1.24-.6-.6-1-1.91-1.59-2.48-.37-.37-1.76-.64-1.95-.89-.35-.47-1.42-1.74-1.42-2.48v-2.66a3.17,3.17,0,0,1,.71-2.48c.5-.66,1.39-1,1.77-1.77a5.63,5.63,0,0,0,.39-1.88c-.76-.25-1.45-.65-1.45-1.49,0-1.55-.58-1.54-1.42-2.66a7.19,7.19,0,0,0-1.42-1.95c-1.13-.85-1.88-.32-3-.89a6.66,6.66,0,0,1-1.77-1.42c-.69-.69-.71-.94-.71-2.3s-1.24-1-1.24-1.77a13.78,13.78,0,0,0,0-2.66,5.37,5.37,0,0,0-2.3-.35c-.86,0-2.13.36-2.13-.71a6.09,6.09,0,0,0-.18-2.48,5.92,5.92,0,0,0-1.05-1.2.47.47,0,0,0-.19,0c-1.13,0-1.43,0-2.13-.71-.28-.28-1.18-1.49-1.59-1.59a12,12,0,0,1-2.48-.89c-.68-.34-1.59-.66-1.59-1.77a30.54,30.54,0,0,0-.7-3.24c-.76.36-.79,1.09-1.61,1.29a12,12,0,0,1-2.48.18c-.91,0-1.73,0-1.95.89a12.3,12.3,0,0,1-.18,2.48c-.46.61-2.13.54-2.3.89a16.6,16.6,0,0,0-.35,2.3c-.25,1-.42,1.42-1.59,1.42-1.77,0-.68-1-1.42-1.42-1.39-.7-.81-.07-1.59.71-.11.11-1.43,1.4-2.13.71l-1.95-1.95a10.92,10.92,0,0,1-2.13-2.84,5.8,5.8,0,0,1,0-2.66,5.3,5.3,0,0,0,0-2.48,4.63,4.63,0,0,1,0-2.84c.35-.7,1.13-2.3.35-2.3-1.35,0-1-.6-1.95-1.06-.13-.07-2.44-1.26-1.42-1.77.75-.37,1-.7.71-1.77-.17-.67,0-1.95-.71-1.95s-2.13-.29-2.13.53c0,1.32-.39,1.24-1.59,1.24s-1.59-.12-1.59-1.24c0-.62.27-2.21-.18-2.66-.86-.86-.18-.91-.18-2.13,0-.95-.3-1.77-1.42-1.77-.39,0-2.75.18-2.84-.18s-.26-1.88.71-2.13A2.36,2.36,0,0,0,119,98.09a5.92,5.92,0,0,0,.13-.81,6.37,6.37,0,0,1-1.9-.43c-.46-.35-1.59-.95-1.59-1.59,0-.32,0-2.84-.71-2.13a2.78,2.78,0,0,1-2.84.71A2.86,2.86,0,0,1,111,92.57l-.35,0c-.62,0-2.46-.27-2.66.53-.3,1.22-.82,1.59-2.13,1.59-1.48,0-.9.39-1.42,1.42-.72,1.44-.3,1.3,0,2.48s-.89.59-.89,1.77c0,.78.23,2-.35,2.48a3.49,3.49,0,0,1-2.48.71,6.91,6.91,0,0,0-2.3.53c-1.19.3-1.5-.53-2.66-.53-1.32,0-1.14.64-2.13.89A9.62,9.62,0,0,1,91,105c-1.52,0-.88-1.24-1.77-1.24s-1.83.18-2.84.18a10.83,10.83,0,0,1-2.66-.18c-1.16-.29-1.12-.75-1.42-1.95-.17-.69-1.42-.88-1.42-1.59a1.08,1.08,0,0,1-1.42-1.06V96.49c0-.87-.6-1.89-1.77-1.59-.43.11-2.73.56-3,0-.53-1.07-1.24-1.18-1.24-2.3a2.18,2.18,0,0,0-2.13-1.95c-.56,0-3.19.05-3.19-.71s.28-2.1,0-2.66a1.27,1.27,0,0,0-1.95-.71,3.91,3.91,0,0,1-2.3.71c-1,0-1.87.32-2.13-.71-.21-.85,0-1.94-.18-2.84-.28-1.13-1.47-1.42-2.66-1.42s-3.54-.21-3.54-1.59c-.12.06-.35.31-.35.18a2.06,2.06,0,0,1,.89-1.95c.38-.38,1.44-1.15,1.59-1.77a6,6,0,0,0,.53-2.13c0-1-.35-1.68-.35-2.66V69.73a3,3,0,0,1,.89-2.48c.57-.57,1.95-.88,2.13-1.59s1-2.48.18-2.48H58.23a8.57,8.57,0,0,1-2.66-.71c-.82-.21-1.2-1.09-1.42-1.95A9.59,9.59,0,0,1,53.45,58a10,10,0,0,1,.18-2.48c.16-.64-.12-2.06.18-2.66.65-1.31,1.57-.86,1.95-1.24.63-.63-.06-1.52.53-2.3.44-.59.89-1.59,1.95-1.59,1.56,0,1.12-.58,1.77-1.24.44-.44,1-1.15,1.77-.35.38.38.86,1.58,1.24,1.77a1.72,1.72,0,0,0,2.3-.35c.36-.36.83-1,1.3-1.52-.22-.15-.41-.2-.41-1.32a14,14,0,0,0,0-3c-.2-.82-1.48-1.34-1.24-2.3.46-1.83-.66-.79-1.24-1.95-.82-1.63.25-.67.71-1.59.56-1.12.2-1.2-.35-2.3a9.39,9.39,0,0,0-1.24-2.48c-.78-.78-.83-1.54-1.59-2.3s-1.9-1.61-.53-1.95a8.56,8.56,0,0,1,2.48,0c.51,0,2.28-.29,2.66,0a3,3,0,0,0,2.3.71c.7,0,2.28.2,2.66-.18.63-.63.69-1.57,1.42-2.3l1.95-1.95a2.62,2.62,0,0,1,2.48-1.06c.94,0,2.3-.94,3-.67a1.52,1.52,0,0,1,.88-.74c1.32-.33,1.6,0,1.95-1.42a12.23,12.23,0,0,0,0-2.66c0-.83-1-1.36-1.42-1.77s-1.38-1-1.95-1.59A17.16,17.16,0,0,0,77,11.43c-.85-.64-1.51-.19-2.3-1.24-.4-.54-.18-1.79-.18-2.48a5.24,5.24,0,0,0-.18-2.13c-.29-.57-1.42-1.07-1.95-1.77-.74-1-1.06-1.07-1.06-2.3A10.82,10.82,0,0,1,71.42,0a7.63,7.63,0,0,0-1.85.62A7.29,7.29,0,0,0,67.8,2.22c-.72.72-1.15,1.33-1.77,1.95a7.34,7.34,0,0,1-1.95,1.59c-.87.43-1.21,1.23-1.95,1.59a2.53,2.53,0,0,0-1.06,2.3v5.67a5.11,5.11,0,0,1-.35,2.3c-.21.42-2,.18-2.48.18-1.07,0-1.75,0-2.3.53s-1.23,1.41-1.77,1.95-.54,1.62-.71,2.48a9.72,9.72,0,0,1-1.06,2.66,9.16,9.16,0,0,1-1.59,2.3l-1.59,1.59c-.53.53,1,1.17,1.42,1.77a2.73,2.73,0,0,0,2.66,1.42c.47,0,.35,2,.35,2.48a2,2,0,0,1-1.06,2.13c-.72.36-.9.91-1.24,1.59s0,2,0,2.66c0,1.17-.23,1.42-1.42,1.42-.47,0-2,1.91-2.3,2.13-.76.57-1.24.35-1.95,1.06-1,1-.49,1.05-1.95,1.42-.55.14-1,1.12-1.16,1.59h-7.7a16,16,0,0,0-3.54.53,14.64,14.64,0,0,1-3,.35c-1.5,0-3,.35-4.61.35H19.42a22.37,22.37,0,0,0-4.61.53c-.24,0-.47.12-.71.18-.8.2-2,1.47-2.66,1.95-1,.76-1.6,1.11-2.48,1.77s-1.3,1.15-2.13,1.77A16.26,16.26,0,0,1,4.54,58a10.61,10.61,0,0,1-2.66.89C1,59.1.44,60,.11,60.7c-.46.91.69,1.75,1.06,2.13a5.05,5.05,0,0,1,1.42,2.3A12.89,12.89,0,0,0,4,67.78,11.07,11.07,0,0,0,6,71.15c.93.93,1.51,2.75,2.48,3.72a6.12,6.12,0,0,0,2.66,1.95,8.5,8.5,0,0,1,2.13,1.06A2.3,2.3,0,0,1,14.28,80c0,1,.6,1.38,1.06,2.3a6.27,6.27,0,0,1,.71,2.84c0,1.22,0,1.56.53,2.13a1.22,1.22,0,0,0,.38.25c-.14.58-.28,1.21-.38,1.7a12.71,12.71,0,0,0-.35,2.84v6.56c0,1.14,1,2.16,1.24,3.19.31,1.24,1.12,2.17,1.42,3.37s1.7,2.51,2.13,3.37a24.28,24.28,0,0,0,2.13,2.84c.62.82,1,1.48,1.59,2.3A23.32,23.32,0,0,1,26.51,117c.63,1.26,1.8,2.42,2.13,3.72a15.59,15.59,0,0,0,1.95,3.37,9.3,9.3,0,0,0,2.3,2.3,41.47,41.47,0,0,1,3,3c.76.76,1.17,1.53,1.77,2.13.75.75,1.14,1.31,1.95,2.13a5.06,5.06,0,0,1,1.59,2.48c.27,1.07.27,2.16.53,3.19s.86,1.33,1.06,2.13,1.35,1.7,1.77,2.13c.68.68.92,1.27,1.59,1.95a8.41,8.41,0,0,1,1.77,2.3,12.79,12.79,0,0,0,1.24,2.3,19.39,19.39,0,0,0,2.48.89c1.26.63.66,1.45,1.95,1.77a8.27,8.27,0,0,0,.18,1.42c.14.56,1.71.91,2.3,1.06a13,13,0,0,0,2.84,0c.84,0,.53,1.51.53,2.3,0,1.29.1,1.73,1.24,2.3,1,.49,1.61-.18,2.48-.18,1.48,0,1.69.63,2.48,1.42,1,1,.91,1.53,1.24,2.84a11.66,11.66,0,0,1,.18,2.84,7.72,7.72,0,0,0,.53,2.48c.19.77,1.65.43,2.13,1.06.64.86,0,2-.53,2.48-.88.88-.66,1.46-.18,1.95s1.68.08,2.3.71.78,1.36,1.59,1.77c1.09.55,1.2,1.95,1.42,3,.25,1.25-.12,1.59-1.24,1.59s-.28,2.09-.18,2.3c.26.52,1.63,0,1.77,0,.51,1,3.06,2.15,3.72,2.48s.94,1.65,1.42,2.13a17.13,17.13,0,0,0,1.6,1.59c1,.76,1,1.75,2.13,2.3a23.75,23.75,0,0,1,2.84,1.42,7,7,0,0,0,3.19,1.24h2.66c1.21,0,1.32-.43,1.95-1.06s1.74-.35,2.48-.35a6.58,6.58,0,0,1,2.66.35c.58.29.35,1.48.35,2.3a4.3,4.3,0,0,1-.53,2.48c-.39.78-.71.68-.71,1.95,0,.7,1.31.6,1.77,1.06s1-.2,1.27-.82a1.61,1.61,0,0,1,.51.56c.47.94-.37,1,1.13,1,.83,0,1-.59,1.38-1.25.24-.48,1.75,0,2,.13s.09,1.37.13,1.5,1.67.21,1.88.25c.81.16,1.26,1,2.13,1.13s1.25.37,1.25,1.25-.38,1-.38,1.75,1.44.21,2,.63a17,17,0,0,0,1.88.88c.72.36,1,.16,1.63.63s1.46-.2,1.63-.38c.66-.66,1.13.45,1.13,1.13a1.79,1.79,0,0,0,.75,1.63c.55.55,1.58.21,2,0s-.49-1.25-1-1.63-.38-1.23-.38-1.88,1.3-.63,1.75-.63c.86,0,1,.23,1.5-.25.32-.32.13-1.45.13-1.88,0-.92,0-1.29.88-1.63a7.45,7.45,0,0,0,1.88-1.5,16.63,16.63,0,0,0,.25-1.75c.25-.5.8-.67,1.13-1a1.23,1.23,0,0,1,1.75,0c.49.49.88,1.19,1.5,1.5s1,0,1.5-.13,0,1.25,0,1.88c0,1,.94.31,1.13.13s.91,0,1.63,0h.27c-.1,0-.16-.05,0-.13,1.46,0-.23-1.74-.25-1.75-.77-.77.42-1.16.88-1.25a12.26,12.26,0,0,1,2.26,0c.61,0,.38-1.06.38-1.63,0-.41-.08-.69-.07-1h.82a7.63,7.63,0,0,0,1.88-.25c.81-.2,1.06-.19,1.25.75.06.29,1.87.13,2.13.13a9.35,9.35,0,0,0,2-.5,3.12,3.12,0,0,0,1.75-1c.51-.51,1.44-.38,2.13-.38.89,0,1.92,1.54,2.38,2s.5-1.43.5-1.63a1.75,1.75,0,0,1,.5-1.5c.27-.27,1.4-.13,1.88-.13a12.7,12.7,0,0,0,2-.13c.44-.09.8-1.08.88-1.38a22.41,22.41,0,0,1,2.51,0c.37,0,1.54,1.38,2,1.75a2.31,2.31,0,0,0,1.88.63,9.89,9.89,0,0,0,2.51-.25c.67-.17.5-1.2.5-1.75s1.49-.25,1.75-.25c.8,0,1.54.13,2.38.13s1-.1,1.38-.63.13-1.49.13-2c0-.77-.73-.93-.88-1.5-.2-.82.89-1.76,1.25-2.13a12.05,12.05,0,0,0,1.25-1.25c.35-.47.87-.34,1.5-.5s.89-1.15,1.13-1.63,1-.88,1.38-1.25c.14-.14.16-1.58.25-1.75.36-.72.29-1-.25-1.5s-1.13-.85-1.13-1.75a3,3,0,0,1,1.13-2.13l1.25-1.25c.55-.55.5-.74.5-1.63a1.29,1.29,0,0,0-.13-.5l5.15-3.79Z"/></g></g></svg>