<svg xmlns="http://www.w3.org/2000/svg" viewBox="0 0 213.02 221.24"><defs><style>.cls-1{fill:#ff4545;}</style></defs><title>region-altos_1</title><g id="Capa_2" data-name="Capa 2"><g id="slide"><path class="cls-1" d="M212,31.49c-1.41,1.89-1,0-2.14,0a3.69,3.69,0,0,1-3.21-1.29c-.14-.14-1.51-2.25-.21-2.57,1.88-.47.08-1.18,0-1.5a16.37,16.37,0,0,1-.21-3.21c0-.69.1-3.38-.43-3.64-.32-.16-2.43-.08-2.57-.64-.48-1.91-1-1.21-2.14-.64-.46.23-2.35.42-2.78.86,0,0-2.7,1.68-3.21.64,0-.64.29-1.35,0-1.93s-1.71-.74-1.71-1.5-.47-2.7-1.07-3c-1.06-.53-1.14-1.34-1.93-1.93-1.08-.81-1.31-.49-2.78-.86-1.14-.29-1.93-.76-1.93-2.14a2.5,2.5,0,0,0-1.07-2.36c-.79-.79-1.36-.86-2.78-.86a15.9,15.9,0,0,1-3.43,0c-.81-.2,0-2.36-.86-2.36s-2.78.31-2.78-.43C174.68.8,175.1,0,173.6,0h-3.21a2.54,2.54,0,0,0-2.57,1.29c-.37.62-1.44,1.83-.86,3,.31.62,1.78,2.11.64,2.57-.43.17-2.45,2-3,1.29s-2-1.84-2.36-1.07a3.88,3.88,0,0,0-.43,2.36,4.26,4.26,0,0,0,.64,2.57c.16.32.72,2.36,1.29,2.36,1.37,0,1.6-.83,2.36-.64s2.28,0,2.78.64c.31.42,1.5,1.39,1.5,2.14,0,.94-.2,2.46-.86,2.78-1,.5-1.14.86-2.57.86h-3.21a15,15,0,0,0-4.07.43,5,5,0,0,0-1.75.85c-.08-.15-.2-.18-.39,0a5.58,5.58,0,0,0-1.5,0,15.51,15.51,0,0,0-1.93,1.71c-.54.72-1.23,1.71-2.14,1.71h-3.64c-2.1,0-1.17.32-2.14,1.29-.38.38-1.82.85-2.14,1.5-.49,1-.12,1.79-.43,3-.36,1.44-1.29,1.29-1.93,2.57-.28.56-.66,2.37-1.07,2.78-.9.9-1.38.29-2.78.64-1.2.3-1.64.29-1.29,1.71s-.15,1.22-1.07,2.14a3,3,0,0,0-.68,1.13c-.84-.17-2.15-.32-2.32.37a13.59,13.59,0,0,0-.21,3c0,2.25-1.06.41-2.14,1.5-.45.45-.93,2-1.5,2.14-1.26.31-1.91-.43-3.21-.43-1.75,0-1.15.31-1.5,1.71-.18.7-1.57,1.57-2.14.43-.2-.4-2.94-1.51-2.94-.35v.61c0,.82.42,3.94-.61,3.94-1.37,0-3.22.33-4.54,0s-2.8-1.93-4.24-1.21c-1.87.94-1.6,1.55-2.12,3.64-.39,1.54-.84,1.82-2.73,1.82-.94,0-3.71.31-3.94-.61-.39-1.55-1-1.82-3-1.82a4.54,4.54,0,0,0-1.45.23c-.32-.37-.74-.65-1.18-1.09s-1-1.71-1.93-1.71a4.76,4.76,0,0,0-1.55.17c-.78-.74-1.69-.6-2.95-.6-.64,0-2.78.26-2.78-.64a9.13,9.13,0,0,1,.64-2.78c.35-1.39-.57-1.07-1.93-1.07A6,6,0,0,1,81.06,48c-.29-.14-.58-.26-.86-.43C79.13,46.91,78,45.84,77,45.84c-.83,0-2.78.4-2.78-.64,0-1.48-.23-1.71-1.71-1.71H69.28c-2.4,0,.12-1.65-.86-2.14s-1.84.67-1.93.64c-1.19-.3-1-1.56-2.14-2.14a4.91,4.91,0,0,0-3-.86,6.22,6.22,0,0,0-3.21,1.07,7.34,7.34,0,0,0-1.93,1.71c-.64.64,0,2.57-.86,2.57-.52,0-3.43-.29-3.64,0a3.39,3.39,0,0,1-2.14,1.71,3.28,3.28,0,0,0-2,1.06c-.07-.41-.23-.53-.61.23a11.82,11.82,0,0,1-1.29,2.36,17.69,17.69,0,0,1-2.14,1.5A17.85,17.85,0,0,0,41,52.91c.43.86,2.57,1.07,2.14,1.93-.28.57-1.7,1.3-1.29,1.71a2.58,2.58,0,0,1,1.07,2.57c0,1.4.57,1.36,1.07,2.36.29.59.83,2,1.5,2.36a6.32,6.32,0,0,0,2.78.43c1.39,0,1.63.31,1.93,1.5s.56,1.5,2.14,1.5c1.79,0,2.39-.15,1.93,1.71-.18.73-1,2.57.21,2.57.51,0,2.89-.32,3.21,0,.74.74,1.17,1.29,2.36,1.29,1.36,0,1.71.49,1.71,1.93s.64,1.32.64,2.57.06,1.87-.86,2.78-.72,1.42.21,2.36c.77.77.76.95-.21,1.93-.4.4-1.52,1.37-1.71,2.14a13.69,13.69,0,0,0-.21,3.21c0,1.63.52,1.69,1.07,2.78.35.7,1.14,1.46.86,2.57s-.18,1.68-1.07,2.57c-.73.73-1.7,1.49-2.57,2.36l-2.36,2.36a10.43,10.43,0,0,1-2,1.6,7.24,7.24,0,0,0,.47-1.17s.54-2.92.21-3c-1.6-.4,0-1.28-.86-2.36-.45-.6-1-2.09-1.5-2.57-1-1-1.18-.54-1.93.21-.11.11-2.34,2.14-1.5,2.14s2.34,1.62,1.29,2.14c-.3.15-2.75.18-3,.43-1,1-.3,1.64-.64,3s-.65,1.29-2.14,1.29c-1.68,0-1.26-1.5-1.93-1.5-1.65,0-1,.82-1.29,2.14-.51,2.53-.3-.43-.43-.43-.76,0-3-.32-3,.43,0,1.12.9,2.36.21,2.36H34.14c-.89,0-2.14.45-2.14,1.5a7.59,7.59,0,0,1-.43,3,5.46,5.46,0,0,0-.42,1.54h0l0,0c0,.1,0,.2,0,.3-1,.29-.79.63-1.21,1.47s-.61,1.21-1.82,1.21c-.81,0-1.67-.18-1.67.76a3.94,3.94,0,0,1-.45,2.12c-.4.8-.93.61-2,.61-.5,0-2.11.17-2.27-.15-.31-.62-1-.76-1.36-1.51s.41-2.12-.3-2.12a14.15,14.15,0,0,1-2.42-.15c-.92-.18-1.07-.87-1.82-1.06-1-.26-1.42-1.11-2.27-2-.49-.49-1.38-.68-1.67.45-.34,1.35-.81,1.36-1.51,1.36a10,10,0,0,1-2.27-.61c-1.12-.28-1.1-1.1-1.82-1.82-.24-.24-1.11-1-1.36,0s-.87,1.35-1.06,2.12a7.42,7.42,0,0,0-.3,2.12v2.27c0,1.34-.46,1.22-1.36,2.12-.58.58-.45,1.19-.45,2.12v2.27c0,1,.52,1.12,1.06,1.67.36.36.95,1.5,0,2a13.42,13.42,0,0,0-2.12,1.36,1.42,1.42,0,0,0-.3,2.12c.38.38,1.54,1,1.82,1.51.19.37.34,1.2.76,1.51s1.7,1.28,2.27,1.21l13.21,13.77c-1.14,2.86-3.22,8.22-3.22,9.1,0,1.05,2.75,10.82,3.47,13.34L.82,178l8.94,20.45,8.06-.2-.48,2,2.12,7,4.24,6.06,7-3.64c1.17-.76,1.88-1.82,3.94-1.82s2.12-.78,2.12-2.73c0-2.42,1.38-1.35,2.12-.61s2.31.61,3.94.61,2,.61,3.94.61,1.47-1.33,1.82-2.73c.49-1.94.67-2,2.42-2.42.36-.09.61,3.43.61,3.94,0,.8-2.12.91,1.21.91,1.29,0,2.26.61,4.24.61,1.07,0,2.63.61,4.24.61a5.09,5.09,0,0,0,3.33-1.82c1-1,.89-2.1,1.82-3,.62-.62,1.06-.76,1.51-1.21a1.93,1.93,0,0,1,3.33.61c.49,1.94,2,.61,2.42-.3a4.46,4.46,0,0,0,.19-2,8,8,0,0,1,2,1.4,3.24,3.24,0,0,0,2.57,1.07c1.13,0,1-1.11,1.29-2.14s1.7-1.07,2.57-.86c1.59.4.2,2,1.71,2.36.91.23,1.62-.43,2.78-.43s1.94,1.53,2.14,2.36c.17.67.86,1.13.86,2.57,0,1.61-.15,1.58-1.29,2.14a3.06,3.06,0,0,0-.43.43c-.39.2,1.07,2.14,1.93,2.14a4.43,4.43,0,0,0,2.57-.64c.74-.37,2.58,0,3.43,0,1.06,0,2.36-.26,2.36-1.5,0-1.53,1.16-1.57,1.5-.21a3.72,3.72,0,0,0,1.93,2.36,2,2,0,0,0,2.78-.64c.79-1.05,1.38-.86,2.78-.86s1.81-.07,1.9-1c.51.35,1.1.78,1.1,1.26,0,2-.18,1.5.21,1.5.86,0,2.36-1.93,2.36-1.07,0,1.13.14,2.14-1.07,2.14-1.74,0-.13.73.43,1.29s1.86.72,2.14,1.29c.68,1.36-.43,1-.43,1.93a4.29,4.29,0,0,0,.86,2.57,7.32,7.32,0,0,1,1.29,2.14c.73,1.46,1.06.65,1.93-.21.53-.53,1.33-1.93,2.14-1.93.51,0,2.89-.32,3.21,0s1.16,1.71,1.93,1.71c1.52,0,1.52-.59,2.57-.86a5.88,5.88,0,0,1,3.21-.21c.92.23,2.48.57,2.78-.64.19-.78-.15-2.49.21-3.21.23-.46,1.8-2.7,2.57-1.93s.78,1.15-.43,2.36c-.62.62-.54,3.21.43,1.93,1.07,0,2,.12,2.57-.64.83-1.1,1.28-.21,2.57-.86a5.1,5.1,0,0,1,3.43-.64c.78.19,2.19.17,3.21.43.55.14,2.36.63,2.78-.21a15.32,15.32,0,0,0,.86-3c.22-.89,1.71-1.23,1.71-2.14,0-.13.34-2.32,0-3-.16-.33-.11-2.47-.43-2.78-.58-.58-1.71-2-1.71-2.78s.44-3.05-.64-2.78a11,11,0,0,1-3.21.64c-1.58,0-1.71.13-1.71-1.5a14.78,14.78,0,0,1,0-3.21c.22-.9.73-2.57-.64-2.57-.41,0-3.1.24-3.21-.21s1.06-1.11.86-1.93c-.25-1,0-1.87-1.07-2.14s-2,.72-2.36.64c-1.37-.34-1.5-.69-1.5-2.14a9.42,9.42,0,0,0-.64-3c-.27-1.06-.88-1.16-1.71-1.12v-2.74c0-1.22,1-1.06,1.93-1.29a30.87,30.87,0,0,0,0-3.21c0-1.57.67-1.52,1.5-2.36a5,5,0,0,0,1-1.44c.13.26.48.36,1.19.36a6.72,6.72,0,0,0,3.21-.43c.67-.33,1.31-2.17,2.14-3s.64-2,.64-3.21c0-.88,1.23-1.71,2.14-1.71,1.18,0,1.7-1.05,2.14-1.93s.42-1.29,1.93-1.29,2,.11,2.78-.64c.28-.28.24-2.62.43-3,.61-1.21,1.07-1.45,1.07-3s.49-1.56,1.29-2.36,1.29-1,1.29-2.57v-3.21c0-1.41.53-1.71,1.07-2.78a3.57,3.57,0,0,0,0-1.89.63.63,0,0,1,.62,0c.75.38,1.72.83,2.36-.43a21.09,21.09,0,0,1,.43-2.78,2.52,2.52,0,0,1,2.57-.86c2,.5,1-.18,2.36-.86.3-.15,2.79-1.06,2.36-1.5-.7-.7-1.5-.56-1.5-2.14,0-2,1.5-1,1.5-2.14,0-2.18,1.66-.42,1.93-1.5.12-.5,0-2.59,1.29-1.93.62.31,1.93,1.07,1.93-.43,0-1,.43-2.22.43-2.78,0-1.26-.43-1.94-.43-3a8.12,8.12,0,0,0-.05-1.23c.17-.49.34-1,.48-1.55.21-.86.5-2.36,1.71-2.36.85,0,2.56-1.4,1.29-1.71-.68-.17-2.79-1.07-1.07-1.93.62-.31,2.32-.89,3-.21,1.12,1.11,1.5.66,1.5-.86,0-.7,1.16-2.48,2.14-1.5.31.31,1.47,2.22,2.14,1.71,1-.77.7-.88,1.07-2.36s.88-.52,1.93,0,1.25.47,2.14-.43c.62-.62,2.18.15,2.57-.64a2.19,2.19,0,0,0,0-2.57c-.21-.28-1.39-2.31-.43-2.78.18-.09,1.72-1.5.86-2.36s-1.08-1.94-1.93-3a12.41,12.41,0,0,0-.86-1.07c-.58-.29-.1.33-.86-.43s-1-1.16-.43-2.36c.43-.86.72-1.29,2.14-1.29a14.78,14.78,0,0,0,3.21,0c1-.25,1.11-1.93,1.93-1.93,1.24,0,1.83-.21,3-.21,1.44,0,1.93,0,1.93-1.5,0-1.77-1.19-1.54-1.29-1.93-.22-.86-1.12-1.47-1.29-2.14A6.3,6.3,0,0,0,201.24,81c-.8-.8-.47-1.59-1.07-2.78s-3.21-.5-3.21-1.71a1.93,1.93,0,0,1-.86-1.71c0-1.93.83-1.45,1.29-2.36.68-1.36.32-.79-.72-1.15a2.78,2.78,0,0,1,.94-.35c.55,0,3-.22,3-.64,0-1.22-.21-1.77-.21-3,0-1.84,0-1.74.86-2.57s.58-1.87,1.29-2.57,2.36-.34,2.36-1.5c0-1.61-.32-.56-1.5-.86s-1.07-.95-1.07-2.36c0-1.57.23-1.83,1.29-2.36,1.51-.75.77-.48,1.5-1.93.07-.15,2.11-2.16,1.29-2.57s-2.09-.21-2.36-1.29c-.12-.5-.5-2.36.64-2.36a3,3,0,0,0,2.36-1.5c.32-.64.84-1.93-.64-1.93s-2.14.42-2.14-1.07a15.88,15.88,0,0,1,0-3.43c.33-1.33.58-1.07,2.14-1.07.82,0,2.63.31,3-.43.76-1.52,1.84.08,2.78-.86a4,4,0,0,0,.86-2.78C213,33.37,212.59,30.63,212,31.49Z"/></g></g></svg>