<svg xmlns="http://www.w3.org/2000/svg" viewBox="0 0 222.01 211.31"><defs><style>.cls-1{fill:#a445ff;}</style></defs><title>region-sierra</title><g id="Capa_2" data-name="Capa 2"><g id="slide"><path class="cls-1" d="M205.77,134l-14.05-20.15-.25.13,1.12-4.13a1.81,1.81,0,0,1-.42-.58c-.39-.78-.74-2.06-2.14-1.71-.8.2-1.88.47-2.57-.21-1-1-1.27-.48-2.79-.86a11.85,11.85,0,0,0-3,0c-.46,0-2.51.7-3,.21-.71-.71-.63-1.39-1.71-1.93-.71-.36-2.17-.26-2.57-1.07a1.38,1.38,0,0,1,.43-1.92c-.7-.81-2.1-1.55-2.79-.87-1.08,1.08-.79.45-1.71.21s-2.25-.43-2.79.64c-.37.75-.73,2-1.93,1.71-.54-.14-3.21-.39-3.21-1.07,0-1.61.82-1.35,1.07-2.36a3.7,3.7,0,0,0-.43-2.79,4.42,4.42,0,0,1-1.71-3V92.91A5.67,5.67,0,0,0,159,93c-.78.78-.66,1.5-2.14,1.5-1.06,0-2.33.24-3-.43s-.62-1.6-.86-2.57a4.94,4.94,0,0,0-1.71-2.78,5.94,5.94,0,0,0-2.78-1.07c-1-.26-1.77-.31-1.07-1.71.1-.19,1.11-2.36,0-2.36-1.52,0-2.1-1.71-2.14-1.71-1,0-2.53-.38-2.78.64-.46,1.83-.93.73-2.14.43s-1.57-1.13-2.36-1.71-2-2.1-3-2.36a2.73,2.73,0,0,1-1.5-3c.18-.7.42-2.09.64-3s.52-2.08-.86-2.36c-1.07-.21-2.57-.52-2.57-1.93s-.14-2,1.07-2.57c.44-.22,3.2-1.94,2.14-3-.68-.68-2.31-.64-2.16-1.93h-.41A2.65,2.65,0,0,1,129,59.34a5.49,5.49,0,0,1-.64-3,6.1,6.1,0,0,0-.43-2.78,6.35,6.35,0,0,1-.43-3,2.71,2.71,0,0,0-1.07-2.14,8.86,8.86,0,0,0-2.14-1.07A11.53,11.53,0,0,1,121.47,45a17.47,17.47,0,0,0-2.36-1.71,16.7,16.7,0,0,1-1.93-1.93A7,7,0,0,0,115,39.63c-.67-.33-1.06-1.28-1.5-1.71-.89-.89-1.7-1.49-2.57-2.36s-1.05-1.38-2.14-1.93c-.89-.45-.74-1.29-2.14-1.29-1.23,0-1.71-.64-2.57-1.07a8.3,8.3,0,0,1-2.36-2.36,19.06,19.06,0,0,0-2.14-2.14c-.71-.71-1.46-1.15-1.71-2.14-.2-.79-1.16-1.68-1.5-2.36-.44-.88-1.57-1.57-2.14-2.14A7.58,7.58,0,0,1,93,18a11.52,11.52,0,0,1-1.07-2.36c-.19-.78-1.29-1.18-1.93-1.5-.89-.44-2.22-.21-3.21-.21-1.5,0-1.66.64-1.93,1.71a3.66,3.66,0,0,0-.05.37c-.52-.53-2-2.3-2.73-2.3a6.39,6.39,0,0,1-3-.43c-.88-.44-1.2-1.07-2.57-1.07s-1.93-.12-1.93-1.5.14-2-.86-3-1.49-.86-3-.86c-1.19,0-1.92-.44-1.29-1.71.43-.87,1.8-2.55.86-2.79a17.64,17.64,0,0,0-3.43-.21,16.67,16.67,0,0,1-3.21,0C63,.85,62.46,1,61.05.64A12.91,12.91,0,0,0,57.84,0c-1.47,0-2.14.21-2.78,1.5S53.78,2.78,52.7,3.86a3.36,3.36,0,0,1-2.36,1.29c-1.11.28-2.54.16-3,1.07A12.43,12.43,0,0,0,46.06,9c0,.09-.18,2.36-.64,2.36-.7,0-2.92-.38-3.43,0s-1.63,1.78-1.93,1.93c-.84.42-1.1,1.88-2.14,2.14-1.52.38-1.67,0-2.57-.86-1.71-1.71-1.08.38-2.14.64-.62.15-1.2-1.24-1.71-.86s-1.3,1.54-2.57,1.29c-.41-.08-3-.41-3-1.07,0-1,.42-2.57-.64-2.57-1.41,0-2.65-.26-3.21.86a6.62,6.62,0,0,0-.43,3c0,1.49.39,1.59,1.29,2.78.64.85,2,1.45,2.36,2.14a6.34,6.34,0,0,1,.21,2.57c0,.84-.27,2.35.21,3,1,1.28,1.75.72,2.79,1.5A20.75,20.75,0,0,1,31.06,30c.69.69,1.7,1.27,2.36,1.93.5.5,1.71,1.13,1.71,2.14a14.79,14.79,0,0,1,0,3.21c-.42,1.68-.76,1.32-2.36,1.71a1.84,1.84,0,0,0-1.06.9c-.87-.33-2.51.81-3.65.81a3.17,3.17,0,0,0-3,1.29l-2.36,2.36c-.88.88-1,2-1.71,2.78-.46.46-2.36.21-3.21.21A3.57,3.57,0,0,1,15,46.49c-.46-.35-2.6,0-3.21,0a10.35,10.35,0,0,0-3,0c-1.66.42-.33,1.38.64,2.36s1,1.84,1.93,2.78c.74.74,1,2,1.5,3,.66,1.33,1.11,1.43.43,2.78-.56,1.12-1.84,0-.86,1.93.7,1.4,2.05.14,1.5,2.36-.29,1.17,1.25,1.8,1.5,2.78a16.91,16.91,0,0,1,0,3.64c0,1.36.23,1.41.49,1.59-.57.63-1.13,1.4-1.57,1.83a2.07,2.07,0,0,1-2.79.43c-.46-.23-1-1.69-1.5-2.14-1-1-1.62-.1-2.14.43-.79.79-.26,1.5-2.14,1.5C4.5,71.76,4,73,3.43,73.69c-.71.95.12,2-.64,2.78-.46.46-1.57-.08-2.36,1.5-.36.72,0,2.44-.21,3.21a12.08,12.08,0,0,0-.21,3c0,1.16.58,1.89.86,3s.72,2.11,1.71,2.36c1.19.3,1.75.86,3.21.86H9c1,0,0,2-.21,3s-1.88,1.24-2.57,1.93a3.57,3.57,0,0,0-1.07,3v3.21c0,1.18.43,2,.43,3.21a7.21,7.21,0,0,1-.64,2.57c-.19.75-1.47,1.69-1.93,2.14a2.49,2.49,0,0,0-1.07,2.36c0,.16.29-.14.43-.21,0,1.68,2.87,1.93,4.28,1.93s2.87.35,3.21,1.71c.27,1.09,0,2.4.21,3.43.31,1.24,1.3.86,2.57.86a4.73,4.73,0,0,0,2.78-.86,1.54,1.54,0,0,1,2.36.86c.34.68,0,2.44,0,3.21s3.18.86,3.86.86A2.63,2.63,0,0,1,24.21,126c0,1.35.85,1.5,1.5,2.78.34.68,3.13.13,3.64,0,1.42-.35,2.14.87,2.14,1.93v3.21a1.3,1.3,0,0,0,1.71,1.29c0,.86,1.51,1.09,1.71,1.93.36,1.45.31,2,1.71,2.36a13.1,13.1,0,0,0,3.21.21c1.22,0,2.19-.21,3.43-.21,1.08,0,.31,1.5,2.14,1.5a11.63,11.63,0,0,0,3.21-.64c1.19-.3,1-1.07,2.57-1.07,1.4,0,1.78,1,3.21.64a8.35,8.35,0,0,1,2.79-.64,4.22,4.22,0,0,0,3-.86c.71-.53.43-2.05.43-3,0-1.43,1.4-.82,1.07-2.14s-.87-1.26,0-3c.62-1.24-.08-1.71,1.71-1.71,1.58,0,2.2-.46,2.57-1.93.24-1,2.46-.64,3.21-.64a2.84,2.84,0,0,0,.43,0,3.46,3.46,0,0,0,1.29,1.53c1.19.59,2.78-.21,3.43-.86.87-.87.86,2.18.86,2.57,0,.78,1.37,1.51,1.93,1.93a7.7,7.7,0,0,0,2.3.52,7.2,7.2,0,0,1-.15,1,2.86,2.86,0,0,1-2.36,1.93c-1.17.29-1,2-.86,2.57.11.43,3,.21,3.43.21,1.35,0,1.71,1,1.71,2.14,0,1.48-.83,1.53.21,2.57.54.54.21,2.47.21,3.21,0,1.36.62,1.5,1.93,1.5,1.46,0,1.93.1,1.93-1.5,0-1,1.63-.64,2.57-.64s.65,1.55.86,2.36c.32,1.3,0,1.69-.86,2.14-1.23.62,1.55,2.06,1.71,2.14,1.12.56.72,1.29,2.36,1.29.94,0,0,1.94-.43,2.78a5.6,5.6,0,0,0,0,3.43,6.41,6.41,0,0,1,0,3,7,7,0,0,0,0,3.21,13.2,13.2,0,0,0,2.57,3.43l2.36,2.36c.84.84,2.44-.72,2.57-.86.95-.95.25-1.7,1.93-.86.89.45-.42,1.71,1.71,1.71,1.42,0,1.62-.49,1.93-1.71s.08-2.09.43-2.78c.21-.41,2.23-.33,2.78-1.07.29-.38.13-2.68.21-3,.26-1.06,1.26-1.07,2.36-1.07a14.52,14.52,0,0,0,3-.21c1-.25,1-1.13,1.94-1.56.07,1,.84,2.59.84,3.92s1.1,1.73,1.93,2.14a14.5,14.5,0,0,0,3,1.07c.5.13,1.58,1.58,1.93,1.93.84.84,1.21.86,2.57.86a.57.57,0,0,1,.23,0,7.15,7.15,0,0,1,1.27,1.45,7.36,7.36,0,0,1,.21,3c0,1.3,1.53.86,2.57.86a6.49,6.49,0,0,1,2.78.43,16.67,16.67,0,0,1,0,3.21c0,.91,1.5.47,1.5,2.14s0,2,.86,2.78a8.06,8.06,0,0,0,2.14,1.71c1.37.69,2.28,0,3.64,1.07a8.7,8.7,0,0,1,1.71,2.36c1,1.35,1.71,1.34,1.71,3.21,0,1,.84,1.5,1.76,1.8a6.8,6.8,0,0,1-.47,2.27c-.46.93-1.54,1.34-2.14,2.14a3.83,3.83,0,0,0-.86,3v3.21c0,.9,1.29,2.44,1.71,3,.22.3,1.91.63,2.36,1.07.69.69,1.21,2.28,1.93,3,1.1,1.1,2-1.19,2.14-1.5.32-.64,2.29-1.54,3-1.71,1-.24,1.42-1.26,1.93-1.93s2.67.69,3,.86a16.86,16.86,0,0,0,2.78,1.07c.75.19.47,1.29,2.36,1.29,1.05,0,.76-1.29,2.36-1.29a15.21,15.21,0,0,0,3-.21s-.64-2.54-.64-3c0-1.05.89-1.29,1.71-1.5,1.43-.36,2.57,0,3.86-.64,1.1-.55-.14-2-.43-2.36-.84-1.12,1.28-1.29,1.93-1.29,1.05,0,2,.45,3,.21s1.07-1,1.07-2.36c0-1,1.31-1.74,1.71-2.14,1.05-1.05.34-1.22-.64-1.71-1.55-.78,1.41-1.42,1.71-1.5,1.19-.3.86-1.5.64-2.36a6.63,6.63,0,0,0-1.71-2.36c-.88-.88-2.19-.39-3,.21a2.36,2.36,0,0,1-1.91.6,6.66,6.66,0,0,0-.44-1.24c-.42-.83-1.46-1-1.93-1.5a3.14,3.14,0,0,1-1.29-2.78c0-.58,1.49-1.71,1.93-2.14.9-.9,1.29-.86,2.78-.86,1.32,0,2,.1,2.79-.64s0-1.59,1.5-2.36l.18-.08a1.07,1.07,0,0,0,.57.45,10.46,10.46,0,0,0,2.27,0c.31,0,.81-1.62.91-1.82.45-.9,2,0,2,.76,0,1.2.08,1.23,1.21,1.51,1,.24,1-1,1.21-1.36.39-.79,1.36.76,1.36,1.21s1.66.17,1.82-.45c.22-.89.51-1,.3-1.82-.15-.59-1.59-.23-.45-1.36.49-.49,1.85-.06,2.27.15s.15,1.89.15,2.27c0,1.15,1.17.83,2.12,1.21a4.88,4.88,0,0,0,2.27-.15,12.27,12.27,0,0,1,2.27.15c.84,0,.76-1.2.76-2s1.09-.91,2-.91c.54,0,.3,1.58.3,2.12,0,1.15.1,1.06,1.21,1.06.66,0,.41,1.54,1.06,1.67.47.09.45-1.64.45-2a1.54,1.54,0,0,1,1.06-1.67c1-.48.76,1.15.76,1.67s.91.91,1.36,1.36.91-1.29.91-1.67c0-.88,1-.67,1.51-1.21a3,3,0,0,1,2.12-.45c1,0,1.72.49,2-.76.21-1-.63-1.22-1.21-1.51a7.25,7.25,0,0,0-2.27,0c-.78,0-1.45.15-2.27.15-.26,0-1.24-1-1.51-1.21s-.43-1.31-.61-1.67c-.38-.77-2.33-.8-2.88-1.21a1,1,0,0,1-.3-1.51c.29-.58.74-.72,1.06-1.36.42-.84,1.75-.07,2,.15.66.66,1.67-.21,1.67-.76a5.1,5.1,0,0,1,.45-1.82c.1-.4.86-.73,1.06-1.51a9,9,0,0,1,.45-2.27c.16-.31-.14-.69-.15-.76l7.12-4.54L222,137.16l-10.3-5.45Z"/></g></g></svg>