<svg xmlns="http://www.w3.org/2000/svg" viewBox="0 0 179.32 89.48"><defs><style>.cls-1{fill:#84efb7;}</style></defs><title>region-cienega</title><g id="Capa_2" data-name="Capa 2"><g id="slide"><path class="cls-1" d="M179.31,20.05c0-.84-.36-1.48-.36-2.53a9.39,9.39,0,0,1,.36-2.53l-21.86-4.34-2.52,1.75-12.3-9.34-8.08,5.79c.61-2.38,1.36-6,.85-6.15C134.69,2.53,115.18,0,115.18,0l-9.31,7.14L96.22.36,76.89,7.95l-.27,2h0c.27,0,.56,0,.79,0,.88,0,.88.25,1.4.51.75.37-1.14,1.15-1.15,1.15-.54.14.3,1.34.64,1.41A2.64,2.64,0,0,0,80,12.74a3.07,3.07,0,0,1,1.79-.38c.26,0,.3.44.29.88s0,.6,0,.78a1.25,1.25,0,0,1-.89,1.41c-.72.36-.77.65-.77,1.53,0,.24-.28.34-.61.37a8.55,8.55,0,0,1-1.05,0c-.85,0-1.21-.13-1.53.51a7.74,7.74,0,0,1-.77,1.41c-.63.84.55.89,1,.89.09,0,0-.17,0-.26.73,0-.11,1.28-.41,1.67l-.1.12c-.68.34-1.24.88-1.79,1.15s-.69.51-1.53.51H71.66c-.87,0-1-.11-1.41-.51s-1.07-.95-1.53-1.41a5.19,5.19,0,0,0-1.53-.77,2.83,2.83,0,0,0-1.79,0c-.29.07-.63,1.4-.77,1.53a10.58,10.58,0,0,1-2.17-.13c-.68,0,.13,1.36.13,2,0,.93-.12.89-1,.89a3.69,3.69,0,0,1-1.79-.26c-.47-.23-.4-.64-1.4-.64-.79,0-.87.85-1.15,1.41-.36.71-.79.51-1.66.51l-.47,0s0-.07,0-.1-.6-1.79-.13-1.79c.85,0,1.15-.05,1.15-.89,0-.6.27-2.32,0-1.79s-.43,1.11-1.28.89c-.21-.05-1.09-1-.91-1.38a.29.29,0,0,1,.15-.15c.33-.17,1.3-.55,1.15-1.15-.08-.32-.67-1.28-1-1.28h-2.3c-.39,0-1.28-.76-.89-1.15a1.52,1.52,0,0,0,.51-1.41c0-1-.07-.89-1-.89h-.85l-.08.09a14.76,14.76,0,0,0-1.66,1.66,2.23,2.23,0,0,1-1.53,1.15l-.19.06a2.18,2.18,0,0,0-.34.15l-.11.13a2.77,2.77,0,0,1,.52,1.44v1.92c0,.46.2,1.79-.26,1.79-.81,0-1.51.13-2.17.13s-1.16.38-1.53.38h-.13v.13a3.51,3.51,0,0,1-.13,1,.88.88,0,0,1-.38.55c-.43.22-.64.31-.8.72a2.56,2.56,0,0,0-.1.3c-.19.74-.51.77-.89,1.53-.3.61-.52.51-1.41.51-.7,0-1.39-.19-1.15.77.16.64,1,.79,1,1.41,0,.95-.26.77-1.15.77-1.11,0,0-1.12-.64-1.28s-1.11-.11-.89.77c0,.2.38,1.47,0,1.66s-1,.51-1,1.15-.14,1.28-.89,1.28H31.77c-.58,0-1.71-.19-2,.26A11.58,11.58,0,0,1,28.58,37a2.19,2.19,0,0,0-.24.41c-.23.44-.53,1.06-.78,1.12s-1.45.77-1.53.77H24a10.7,10.7,0,0,1-2.3,0A9.35,9.35,0,0,0,19.42,39h0c-.69,0-1.31-.13-2-.13s-2.1.15-2.43-.51c-.3-.06-.59.11-.77-.26-.26-.53-.21-1.28-1.15-1.28-.73,0-1.31.07-1.66-.51s-.42-1.09-1.15-1.28a9.06,9.06,0,0,0-1.79-.13c-1.26,0-.47-.51-1.15-1a2.32,2.32,0,0,0-1.66-.51H3.67c-1,0-.29-.8-.89-1.41l0,0h0L0,32.15,2.68,41a1.68,1.68,0,0,1,1.53.51c.6.6.65.42.89,1.41.2.8.61,1.29.77,1.92.08.31.82.95,1,1.15.46.46.61,1,1.15,1.28a14.63,14.63,0,0,0,1.41,1c.71.35,1.19.3,1.66.77s.36,1,.89,1.53a4.9,4.9,0,0,1,1.15,1.28c.31.61-.27,1.21-.38,1.66a4,4,0,0,0,.13,2.17,3.14,3.14,0,0,0,1.15,1.41c.62.47.84,1.34,1.79,1.92a4.23,4.23,0,0,0,1.92.13c1,0,1.07.34.51.89s0,1.26.26,1.53a3.1,3.1,0,0,0,2.43.89,2.76,2.76,0,0,1,1.92.38,2.27,2.27,0,0,0,1.79.51,8.11,8.11,0,0,0,1.79-.13c.51-.13,0-1.16-.38-1.53A6.63,6.63,0,0,0,24.52,61a2.78,2.78,0,0,1-1.28-1.28,1.75,1.75,0,0,1,.38-1.66c.43-.43.84-.38.89-1.15a2.39,2.39,0,0,1,1.67.38,4.09,4.09,0,0,0,2.17,1,8.82,8.82,0,0,1,1.92,0,3.61,3.61,0,0,1,1.53.77A4.41,4.41,0,0,0,34,60.25a5.88,5.88,0,0,0,1.66.26,3,3,0,0,1,1.79.51,7.76,7.76,0,0,0,1.53.64c.76.19,1.24.85,1.92,1s1.13.09,1.79.26a2,2,0,0,1,1.41.89,3.54,3.54,0,0,0,1.41,1.53,3.09,3.09,0,0,0,1.61.27L44,72.44l1.35.79a14.23,14.23,0,0,0-.66,2.23c0,.51,1,2.55,1.15,2.3a1.86,1.86,0,0,0,.38,1.66c.58.58.77,0,.77,1.28a5.54,5.54,0,0,1,.13,1.79c-.32,1.28-1.42-.21-1.66-.51-.6-.76-.85,1.12-.77,1.28a15.88,15.88,0,0,0,1.28,1c.63.63,1.28-.46,1.28.77,0,.84-.38.86-.38,1.66s.7.62,1.28.77a7.69,7.69,0,0,0,2,.26c.85,0,.6.77,1.41.77a9.61,9.61,0,0,0,1.92-.13c.88-.22.82.06,1.41.64a1.45,1.45,0,0,0,1.66.38c.46-.12.68-.75,1.28-.89.42-.11.26-1.44.26-1.79,0-.76.48-.89,1-1,.92-.23.89-.16.89-1.15a2,2,0,0,1,.64-1.66c.54-.54.77-.31.77-1.41,0-.89.31-1,.77-1.41s.51-.81.51-1.66A2.58,2.58,0,0,0,62,76.73c.62-.22-.15-1.83-.15-2.66,0-1,.18-1.5.18-2.53,0-.7-.18-1.71-.18-2.53,0-1,1.12-.9,2-.9,1.17,0,1.71-.09,2.35.54.87.87.32,1.08,2,1.08,1.2,0,1.26-.87,1.45-1.63C70,66.86,70.31,67,71.83,67c.76,0,.61,1.73.72,2.17.18.72,1.64,0,2.17-.54.19-.19-1.69-1.4-2-1.63a4.71,4.71,0,0,1-.9-2,2.16,2.16,0,0,0-.49-1,1.18,1.18,0,0,1,.58-.3,4.22,4.22,0,0,1,2.94.38,6.5,6.5,0,0,0,3.58,1c.75,0,1.88,0,2.3.38s1.31,1.06,1.92,1.66a2.82,2.82,0,0,1,1,1.53c.13.67,1.73,2.94,2.68,2.94.78,0,1.39.13,2.17.13.44,0-1.28-.46-1.9-1.28s0-.83-.58-1.4A3.2,3.2,0,0,1,87,67.15a3.87,3.87,0,0,1,1.66-.26,7.82,7.82,0,0,0,2.3,0c.41,0,.55-1,.87-1.19a3.1,3.1,0,0,1,2-.65c1,0,.9.11,1.65-.63s1.2-1.27,2.17-1.27c.67,0,1.22-.47,1.67,0,.72.72.37.83.88.15.34-.46.34-.06.34-.63,0-1,.53,0,.42-.48-.18-.71-.25-.23-.25-1v0l.55-.31a38,38,0,0,1,1.81-3.4c.46-.46,2.09-.18,2.71-.18h2.71c.69,0,1-1.46,1.08-2,.28-1.1-.18-1.44.18-2.17s.86-.91,1.08-1.81c.09-.38.46-.47.9-.51a7.41,7.41,0,0,1-.18,1.24c-.25,1,1.74,1.26,2.53,1.26,1.21,0,1.72-.2,2-1.26,0,0,1.56-.45,1.81-1.45s1.81-.51,1.81.54c0,.06,2,.15,2-1.08,0-.72-.92-.93-1.26-1.63-.24-.47,2.23-.36,2.53-.36.69,0,1.42-.88,1.81-1.26a4.33,4.33,0,0,1,2.17-1.08c1.28-.32,1.24-.14,1.81-1.26.38-.76,1.74-.54,2.53-.54,1.23,0,1.6,0,2.17.54s1.64.36,2.53.36H139a2.12,2.12,0,0,0,2.17-1.08,1.32,1.32,0,0,1,.39-.35c.08.79.37.74,1.24.53.66-.17,1.2-.53,2-.72.31-.08.21-1.59,1.08-1.81.6-.15,1.41,1,1.63,1.45s2,.26,2.53.36a13.2,13.2,0,0,0,2.53.18h2.71c.72,0,.45-.57,0-1a7.37,7.37,0,0,1,2.31.13,4,4,0,0,0,2.89-.18c.87-.44.58-1.49,1.26-2.17s2.77-.36,3.61-.36h2.89c1,0,1.18-.82,1.63-1.26.79-.79,1.08-.06,1.08-1.63,0-1.35.3-1.26,1.63-1.26,1.51,0,.3-1,0-1.26-.7-.7-.28-2,0-2.53s1.5-.74,2.17-.9c1.2-.3,1.44-.21,1.44-1.63,0-.61-.18-1.66-.18-2.53s1-1.37,1.63-2a7.86,7.86,0,0,0,1.26-2A5.54,5.54,0,0,0,179.31,20.05ZM91.14,49.55a.86.86,0,0,1-.24-.11.64.64,0,0,1-.23-.5l.55.2Z"/></g></g></svg>